<?xml version="1.0" encoding="UTF-8" standalone="no"?>
<!-- Created with Inkscape (http://www.inkscape.org/) -->

<svg
   version="1.1"
   id="svg1065"
   width="274.58301"
   height="64"
   viewBox="0 0 274.58301 63.999999"
   sodipodi:docname="logo.svg"
   inkscape:version="1.2.2 (732a01da63, 2022-12-09, custom)"
   xmlns:inkscape="http://www.inkscape.org/namespaces/inkscape"
   xmlns:sodipodi="http://sodipodi.sourceforge.net/DTD/sodipodi-0.dtd"
   xmlns="http://www.w3.org/2000/svg"
   xmlns:svg="http://www.w3.org/2000/svg">
  <defs
     id="defs1069">
    <clipPath
       clipPathUnits="userSpaceOnUse"
       id="clipPath1083">
      <path
         d="M 0,612 H 792 V 0 H 0 Z"
         id="path1081" />
    </clipPath>
    <clipPath
       clipPathUnits="userSpaceOnUse"
       id="clipPath1131">
      <path
         d="M 480.96,0 H 792 V 311.04 H 480.96 Z"
         id="path1129" />
    </clipPath>
    <clipPath
       clipPathUnits="userSpaceOnUse"
       id="clipPath1143">
      <path
         d="M 476.64,298.8 H 792 V 612 H 476.64 Z"
         id="path1141" />
    </clipPath>
  </defs>
  <sodipodi:namedview
     id="namedview1067"
     pagecolor="#ffffff"
     bordercolor="#eeeeee"
     borderopacity="0"
     inkscape:showpageshadow="0"
     inkscape:pageopacity="0"
     inkscape:pagecheckerboard="0"
     inkscape:deskcolor="#505050"
     showgrid="false"
     showborder="true"
     inkscape:zoom="1.3557314"
     inkscape:cx="234.92854"
     inkscape:cy="59.377542"
     inkscape:window-width="1366"
     inkscape:window-height="707"
     inkscape:window-x="0"
     inkscape:window-y="30"
     inkscape:window-maximized="1"
     inkscape:current-layer="g1073" />
  <g
     id="g1073"
     inkscape:groupmode="layer"
     inkscape:label="logo"
     transform="matrix(0.5939587,0,0,-0.5939587,-64.742713,213.75142)"
     style="display:inline">
    <g
       aria-label="Taxo Contable"
       transform="matrix(1,0,0,-1,228.2085,283.707)"
       id="text1103"
       style="font-size:60.4131px;font-family:'Humnst777 BT';-inkscape-font-specification:Humanist777BT-RomanB;display:inline;fill:#515251"
       inkscape:label="text">
      <path
         d="M -0.17699151,-44.041387 H 37.079721 v 5.01476 H 21.445471 V 0 H 15.457258 V -39.026627 H -0.17699151 Z"
         id="path3430"
         inkscape:label="Taxo" />
      <path
         d="m 42.474846,-16.607703 q -6.578184,0 -9.115062,1.504428 -2.536879,1.504428 -2.536879,5.1327534 0,2.8908613 1.88791,4.6017792 1.917408,1.6814193 5.191751,1.6814193 4.513283,0 7.227153,-3.1858471 2.743368,-3.2153458 2.743368,-8.5250908 v -1.209442 z m 10.825981,-2.241893 V 0 h -5.42774 v -5.0147594 q -1.858411,3.0088556 -4.631277,4.45428629 -2.772867,1.41593206 -6.784675,1.41593206 -5.073756,0 -8.082612,-2.83186415 -2.979357,-2.8613627 -2.979357,-7.6401334 0,-5.5752324 3.716822,-8.4070964 3.74632,-2.831864 11.150465,-2.831864 h 7.610634 v -0.530975 q 0,-3.74632 -2.477881,-5.781722 -2.448382,-2.064901 -6.902669,-2.064901 -2.831864,0 -5.516235,0.678467 -2.684371,0.678468 -5.162252,2.035402 v -5.014759 q 2.979357,-1.150445 5.781722,-1.710918 2.802366,-0.589972 5.457239,-0.589972 7.168156,0 10.707986,3.716822 3.53983,3.716822 3.53983,11.268459 z"
         id="path3432"
         inkscape:label="tAxo" />
      <path
         d="M 85.311038,-33.038415 73.364111,-16.961686 85.930508,0 H 79.529315 L 69.912777,-12.979377 60.296238,0 H 53.895045 L 66.72693,-17.286171 54.986493,-33.038415 h 6.401193 l 8.761079,11.769936 8.76108,-11.769936 z"
         id="path3434"
         inkscape:label="taXo" />
      <path
         d="m 97.050765,-29.233097 q -4.36579,0 -6.902668,3.421836 -2.536879,3.392337 -2.536879,9.321552 0,5.929216 2.50738,9.3510515 2.536878,3.3923373 6.932167,3.3923373 4.336295,0 6.873175,-3.4218359 2.53687,-3.4218359 2.53687,-9.3215529 0,-5.870218 -2.53687,-9.292054 -2.53688,-3.451334 -6.873175,-3.451334 z m 0,-4.60178 q 7.079665,0 11.120965,4.60178 4.04131,4.601779 4.04131,12.743388 0,8.112111 -4.04131,12.7433888 -4.0413,4.60177915 -11.120965,4.60177915 -7.109158,0 -11.150465,-4.60177915 -4.011807,-4.6312778 -4.011807,-12.7433888 0,-8.141609 4.011807,-12.743388 4.041307,-4.60178 11.150465,-4.60178 z"
         id="path3436"
         inkscape:label="taxO" />
      <path
         d="m 156.29129,-40.64905 v 6.283199 q -3.00886,-2.802366 -6.4307,-4.188799 -3.39233,-1.386434 -7.22715,-1.386434 -7.55164,0 -11.56344,4.631278 -4.01181,4.601779 -4.01181,13.33336 0,8.702083 4.01181,13.3333607 4.0118,4.6017792 11.56344,4.6017792 3.83482,0 7.22715,-1.3864335 3.42184,-1.3864334 6.4307,-4.188799 v 6.2242014 q -3.12685,2.1238981 -6.63719,3.18584711 -3.48083,1.06194904 -7.37464,1.06194904 -10.00002,0 -15.75225,-6.10620705 -5.75222,-6.1357059 -5.75222,-16.7256979 0,-10.61949 5.75222,-16.725697 5.75223,-6.135706 15.75225,-6.135706 3.95281,0 7.43364,1.06195 3.51033,1.03245 6.57819,3.126849 z"
         id="path3438"
         inkscape:label="Contable" />
      <path
         d="m 169.7096,-29.233097 q -4.36579,0 -6.90267,3.421836 -2.53688,3.392337 -2.53688,9.321552 0,5.929216 2.50738,9.3510515 2.53688,3.3923373 6.93217,3.3923373 4.33629,0 6.87317,-3.4218359 2.53688,-3.4218359 2.53688,-9.3215529 0,-5.870218 -2.53688,-9.292054 -2.53688,-3.451334 -6.87317,-3.451334 z m 0,-4.60178 q 7.07966,0 11.12097,4.60178 4.0413,4.601779 4.0413,12.743388 0,8.112111 -4.0413,12.7433888 -4.04131,4.60177915 -11.12097,4.60177915 -7.10916,0 -11.15046,-4.60177915 -4.01181,-4.6312778 -4.01181,-12.7433888 0,-8.141609 4.01181,-12.743388 4.0413,-4.60178 11.15046,-4.60178 z"
         id="path3440"
         inkscape:label="cOntable" />
      <path
         d="M 216.81223,-19.941043 V 0 h -5.42774 v -19.764052 q 0,-4.690275 -1.82891,-7.020663 -1.82891,-2.330388 -5.48674,-2.330388 -4.39529,0 -6.93216,2.802366 -2.53688,2.802365 -2.53688,7.640133 V 0 h -5.45724 v -33.038415 h 5.45724 v 5.132754 q 1.9469,-2.979357 4.57228,-4.454286 2.65487,-1.47493 6.10621,-1.47493 5.69322,0 8.61358,3.539831 2.92036,3.510331 2.92036,10.354003 z"
         id="path3442"
         inkscape:label="coNtable" />
      <path
         d="m 227.15963,-42.418965 v 9.38055 h 11.17996 v 4.218298 h -11.17996 v 17.935139 q 0,4.0413064 1.09144,5.1917512 1.12095,1.1504448 4.51329,1.1504448 h 5.57523 V 0 h -5.57523 q -6.2832,0 -8.67259,-2.3303882 -2.38938,-2.3598867 -2.38938,-8.5545898 v -17.935139 h -3.98231 v -4.218298 h 3.98231 v -9.38055 z"
         id="path3444"
         inkscape:label="conTable" />
      <path
         d="m 255.89621,-16.607703 q -6.57819,0 -9.11506,1.504428 -2.53688,1.504428 -2.53688,5.1327534 0,2.8908613 1.88791,4.6017792 1.9174,1.6814193 5.19175,1.6814193 4.51328,0 7.22715,-3.1858471 2.74337,-3.2153458 2.74337,-8.5250908 v -1.209442 z m 10.82598,-2.241893 V 0 h -5.42774 v -5.0147594 q -1.85841,3.0088556 -4.63128,4.45428629 -2.77287,1.41593206 -6.78467,1.41593206 -5.07376,0 -8.08262,-2.83186415 -2.97935,-2.8613627 -2.97935,-7.6401334 0,-5.5752324 3.71682,-8.4070964 3.74632,-2.831864 11.15046,-2.831864 h 7.61064 v -0.530975 q 0,-3.74632 -2.47788,-5.781722 -2.44838,-2.064901 -6.90267,-2.064901 -2.83186,0 -5.51624,0.678467 -2.68437,0.678468 -5.16225,2.035402 v -5.014759 q 2.97936,-1.150445 5.78172,-1.710918 2.80237,-0.589972 5.45724,-0.589972 7.16816,0 10.70799,3.716822 3.53983,3.716822 3.53983,11.268459 z"
         id="path3446"
         inkscape:label="contAble" />
      <path
         d="m 293.47576,-16.489709 q 0,-5.988212 -2.47788,-9.38055 -2.44838,-3.421835 -6.75517,-3.421835 -4.3068,0 -6.78468,3.421835 -2.44838,3.392338 -2.44838,9.38055 0,5.988213 2.44838,9.4100487 2.47788,3.3923372 6.78468,3.3923372 4.30679,0 6.75517,-3.3923372 2.47788,-3.4218357 2.47788,-9.4100487 z m -18.46611,-11.533946 q 1.71092,-2.949859 4.30679,-4.365791 2.62538,-1.445431 6.2537,-1.445431 6.01771,0 9.76403,4.778771 3.77582,4.778771 3.77582,12.566397 0,7.7876266 -3.77582,12.5663973 -3.74632,4.77877065 -9.76403,4.77877065 -3.62832,0 -6.2537,-1.41593206 -2.59587,-1.44543069 -4.30679,-4.39528909 V 0 h -5.45724 v -45.899798 h 5.45724 z"
         id="path3448"
         inkscape:label="contaBle" />
      <path
         d="m 302.74444,-45.899798 h 5.42773 V 0 h -5.42773 z"
         id="path3450"
         inkscape:label="contabLe" />
      <path
         d="m 343.08669,-17.876142 v 2.654872 h -24.9558 q 0.35398,5.6047314 3.36284,8.5545899 3.03835,2.9203599 8.43659,2.9203599 3.12685,0 6.04721,-0.7669632 2.94986,-0.7669632 5.84072,-2.3008896 v 5.1327537 q -2.92036,1.23894053 -5.98821,1.88790939 -3.06785,0.64896886 -6.2242,0.64896886 -7.90562,0 -12.5369,-4.60177915 -4.60178,-4.6017792 -4.60178,-12.4484028 0,-8.112111 4.36579,-12.861383 4.39529,-4.778771 11.82893,-4.778771 6.66668,0 10.531,4.306794 3.89381,4.277295 3.89381,11.651941 z m -5.42774,-1.592924 q -0.059,-4.454286 -2.50738,-7.109159 -2.41888,-2.654872 -6.43069,-2.654872 -4.54278,0 -7.28615,2.566377 -2.71387,2.566376 -3.12685,7.227153 z"
         id="path3452"
         inkscape:label="contablE" />
    </g>
    <g
       id="g1077"
       inkscape:label="mark"
       style="display:inline">
      <path
         d="m 169.72,306.433 h -13.829 v 4.026 h 13.829 z m 0,-5.783 h -13.829 v 4.027 h 13.829 z m -18.884,-7.06 h 23.938 v 23.938 h -23.938 z"
         style="fill:#c5d9e7;fill-opacity:1;fill-rule:nonzero;stroke:none"
         id="path1075"
         inkscape:label="=" />
      <path
         d="m 137.185,304.388 h -13.829 v 4.026 h 13.829 z m -6.915,-6.263 c -1.386,0 -2.514,1.128 -2.514,2.515 0,1.386 1.128,2.514 2.514,2.514 1.386,0 2.514,-1.128 2.514,-2.514 0,-1.387 -1.128,-2.515 -2.514,-2.515 m 0,16.554 c 1.386,0 2.514,-1.128 2.514,-2.515 0,-1.387 -1.128,-2.515 -2.514,-2.515 -1.386,0 -2.514,1.128 -2.514,2.515 0,1.387 1.128,2.515 2.514,2.515 m 4.719,17.275 -25.987,-25.954 26.058,-26.029 12.77,12.37 V 319 Z"
         style="fill:#00609c;fill-opacity:1;fill-rule:nonzero;stroke:none"
         id="path1085"
         inkscape:label="%" />
      <path
         d="M 0,0 V -2.713 -3.37 H -0.657 -13.173 -13.83 V -2.713 0 0.657 H -13.173 -0.657 0 Z M 5.811,15.389 H -20.015 L -32.965,2.826 -7.072,-23.043 18.709,2.721 Z"
         style="fill:#abc8e7;fill-opacity:1;fill-rule:nonzero;stroke:none"
         id="path1089"
         transform="translate(169.9498,275.1673)"
         inkscape:label="-" />
      <path
         d="M 0,0 V -2.713 -3.37 h -0.657 -4.245 v -4.244 -0.657 h -0.657 -2.713 -0.657 v 0.657 4.244 h -4.244 -0.657 V -2.713 0 0.657 h 0.657 4.244 v 4.244 0.657 h 0.657 2.713 0.657 V 4.901 0.657 H -0.657 0 Z M -7.072,21.009 -33.197,-5.13 -20.015,-17.98 H 5.811 L 19,-5.062 Z"
         style="fill:#007cba;fill-opacity:1;fill-rule:nonzero;stroke:none"
         id="path1093"
         inkscape:label="+"
         transform="translate(169.9498,338.8669)" />
      <path
         d="m 0,0 -1.918,-1.918 -0.465,-0.465 -0.464,0.465 -3.001,3.001 -3.002,-3.001 -0.464,-0.465 -0.465,0.465 -1.918,1.918 -0.465,0.465 0.465,0.464 3.001,3.001 -3.001,3.002 -0.464,0.464 0.464,0.465 1.918,1.918 0.465,0.464 0.464,-0.464 3.001,-3.002 3.002,3.002 0.465,0.465 L -1.918,9.779 0,7.861 0.465,7.397 0,6.932 -3.001,3.93 0,0.929 0.464,0.465 Z M -8.912,29.444 -21.701,16.407 V -10.257 L -9.119,-22.49 16.95,3.579 Z"
         style="fill:#7badd3;fill-opacity:1;fill-rule:nonzero;stroke:none"
         id="path1097"
         inkscape:label="x"
         transform="translate(199.8042,302.421)" />
    </g>
  </g>
</svg>
