<svg id="Capa_1" enable-background="new 0 0 512 512" height="512" viewBox="0 0 512 512" width="512" xmlns="http://www.w3.org/2000/svg"><g><path d="m0 247.984c0 4.142 3.358 7.5 7.5 7.5h16.548v88.694c0 12.976 10.557 23.532 23.532 23.532h16.032c12.976 0 23.532-10.557 23.532-23.532v-88.694h17.064v16.548c0 4.142 3.358 7.5 7.5 7.5s7.5-3.358 7.5-7.5v-16.548h33.097v208.936c0 4.705-3.828 8.532-8.532 8.532h-16.033c-4.705 0-8.532-3.828-8.532-8.532v-160.323c0-4.142-3.358-7.5-7.5-7.5s-7.5 3.358-7.5 7.5v160.323c0 12.976 10.557 23.532 23.532 23.532h16.033c12.976 0 23.532-10.557 23.532-23.532v-208.936h17.064v24.564c0 12.976 10.557 23.532 23.532 23.532h16.032c12.976 0 23.532-10.556 23.532-23.532v-24.564h257.035c4.142 0 7.5-3.358 7.5-7.5s-3.358-7.5-7.5-7.5h-16.548v-120.758c0-12.976-10.557-23.532-23.532-23.532h-16.032c-12.976 0-23.532 10.557-23.532 23.532v8.017c0 4.142 3.358 7.5 7.5 7.5s7.5-3.358 7.5-7.5v-8.017c0-4.704 3.828-8.532 8.532-8.532h16.032c4.705 0 8.532 3.828 8.532 8.532v120.758h-33.097v-80.677c0-4.143-3.358-7.5-7.5-7.5s-7.5 3.357-7.5 7.5v80.677h-17.064v-192.903c0-12.976-10.557-23.532-23.532-23.532h-16.033c-12.976 0-23.532 10.556-23.532 23.532v192.903h-17.064v-40.597c0-12.976-10.557-23.533-23.532-23.533h-16.032c-12.976 0-23.532 10.557-23.532 23.533v40.597h-257.034c-4.142 0-7.5 3.358-7.5 7.5zm312.629-7.5h-33.097v-40.597c0-4.705 3.828-8.533 8.532-8.533h16.032c4.705 0 8.532 3.828 8.532 8.533v40.597zm80.162 0h-33.097v-192.903c0-4.705 3.828-8.532 8.532-8.532h16.033c4.705 0 8.532 3.828 8.532 8.532zm-193.42 15h33.097v24.564c0 4.705-3.828 8.532-8.532 8.532h-16.032c-4.705 0-8.532-3.828-8.532-8.532v-24.564zm-160.323 0h33.097v88.694c0 4.704-3.828 8.532-8.532 8.532h-16.032c-4.705 0-8.532-3.828-8.532-8.532v-88.694z"/><path d="m199.371 151.79v-64.129c0-21.816-17.749-39.564-39.564-39.564h-64.13c-21.816 0-39.564 17.749-39.564 39.564v64.129c0 21.816 17.749 39.564 39.564 39.564h64.129c21.817 0 39.565-17.748 39.565-39.564zm-15 0c0 13.545-11.02 24.564-24.564 24.564h-64.13c-13.545 0-24.564-11.02-24.564-24.564v-64.129c0-13.545 11.02-24.564 24.564-24.564h64.129c13.545 0 24.564 11.02 24.564 24.564v64.129z"/><path d="m151.791 127.226h-16.549v16.549c0 4.142-3.358 7.5-7.5 7.5s-7.5-3.358-7.5-7.5v-16.549h-16.548c-4.142 0-7.5-3.357-7.5-7.5 0-4.142 3.358-7.5 7.5-7.5h16.548v-16.548c0-4.143 3.358-7.5 7.5-7.5s7.5 3.357 7.5 7.5v16.548h16.549c4.142 0 7.5 3.358 7.5 7.5s-3.358 7.5-7.5 7.5z"/><path d="m312.629 344.178v64.129c0 21.815 17.749 39.564 39.564 39.564h64.129c21.816 0 39.564-17.749 39.564-39.564v-64.129c0-21.816-17.749-39.565-39.564-39.565h-64.129c-21.816 0-39.564 17.748-39.564 39.565zm15 0c0-13.545 11.02-24.565 24.564-24.565h64.129c13.545 0 24.564 11.02 24.564 24.565v64.129c0 13.545-11.02 24.564-24.564 24.564h-64.129c-13.545 0-24.564-11.02-24.564-24.564z"/><path d="m360.209 368.742h48.097c4.142 0 7.5 3.357 7.5 7.5 0 4.142-3.358 7.5-7.5 7.5h-48.097c-4.142 0-7.5-3.358-7.5-7.5s3.358-7.5 7.5-7.5z"/></g></svg>