<svg id="Capa_1" enable-background="new 0 0 512 512" height="512" viewBox="0 0 512 512" width="512" xmlns="http://www.w3.org/2000/svg"><g><path d="m288.064 263.5c4.142 0 7.5-3.358 7.5-7.5v-8.016c0-4.142-3.358-7.5-7.5-7.5s-7.5 3.358-7.5 7.5v8.016c0 4.142 3.358 7.5 7.5 7.5z"/><path d="m223.936 263.5c4.142 0 7.5-3.358 7.5-7.5v-8.016c0-4.142-3.358-7.5-7.5-7.5s-7.5 3.358-7.5 7.5v8.016c0 4.142 3.357 7.5 7.5 7.5z"/><path d="m243.266 294.937 22.354 4.746c.525.112 1.049.165 1.565.165 3.466 0 6.58-2.417 7.329-5.943.86-4.052-1.727-8.034-5.779-8.895l-22.354-4.746c-4.05-.862-8.034 1.727-8.894 5.778s1.727 8.035 5.779 8.895z"/><path d="m376.278 401.005-51.116-22.718-3.772-5.658c15.458-4.604 23.837-15.293 27.478-21.312 13.623-1.774 22.3-9.422 27.319-15.863 5.998-7.697 6.531-18.514 1.328-26.917-6.656-10.749-17.822-31.868-17.822-52.537v-56.113c0-48.336-39.325-87.662-87.661-87.662h-32.064c-48.336 0-87.661 39.325-87.661 87.662v56.113c0 20.669-11.166 41.788-17.822 52.537-5.204 8.403-4.67 19.221 1.328 26.918 5.019 6.44 13.697 14.088 27.319 15.862 3.641 6.02 12.02 16.708 27.478 21.312l-3.772 5.658-51.116 22.718c-14.273 6.344-23.496 20.535-23.496 36.154v51.308c0 4.142 3.358 7.5 7.5 7.5s7.5-3.358 7.5-7.5v-51.307c0-9.697 5.726-18.508 14.588-22.447l44.137-19.616 14.54 94.512c.57 3.708 3.765 6.36 7.403 6.36.379 0 .763-.029 1.15-.088 4.094-.63 6.902-4.459 6.272-8.554l-10.685-69.45c3.213 2.806 7.161 4.718 11.46 5.462 1.338.231 2.682.345 4.019.345 5.406 0 10.688-1.864 14.932-5.35l13.458-11.056v17.06c0 4.142 3.358 7.5 7.5 7.5s7.5-3.358 7.5-7.5v-17.061l13.458 11.057c4.244 3.486 9.525 5.35 14.931 5.35 1.336 0 2.681-.114 4.019-.345 4.299-.744 8.247-2.657 11.46-5.462l-10.685 69.45c-.63 4.094 2.178 7.924 6.272 8.554.387.059.771.088 1.15.088 3.639 0 6.833-2.653 7.403-6.36l14.54-94.512 44.137 19.616c8.862 3.939 14.588 12.75 14.588 22.447v51.308c0 4.142 3.358 7.5 7.5 7.5s7.5-3.358 7.5-7.5v-51.308c.001-15.619-9.221-29.811-23.495-36.155zm-11.515-84.572c1.945 3.141 1.785 6.988-.407 9.801-5.196 6.668-12.065 10.184-20.416 10.447-2.951.093-5.55 1.856-6.675 4.585-.32.744-8.07 18.112-30.784 18.56-3.51-1.08-7.255-1.34-10.917-.725v-25.979c4.612-2.646 8.989-5.751 13.044-9.326 13.219-11.651 22.119-27.18 25.494-44.265h2.058c3.979 0 7.831-1.006 11.24-2.861 4.114 16.514 12.025 31.143 17.363 39.763zm-108.763 66.037-24.564-15.936v-26.89c7.232 2.434 14.832 3.804 22.599 3.992.652.016 1.3.023 1.951.023 8.433 0 16.713-1.327 24.579-3.874v26.748zm-81.243-41.151c-1.125-2.729-3.747-4.545-6.697-4.638-8.351-.263-15.219-3.778-20.416-10.446-2.192-2.813-2.352-6.66-.407-9.801 7.495-12.104 20.069-36.051 20.069-60.434v-56.113c0-40.066 32.596-72.662 72.661-72.662h32.064c40.065 0 72.661 32.596 72.661 72.662v34.428c-2.915-1.178-6.087-1.848-9.39-1.848-5.843 0-11.01-3.724-12.857-9.268l-10.126-30.378c4.483-4.285 7.293-10.306 7.293-16.983 0-4.143-3.358-7.5-7.5-7.5s-7.5 3.357-7.5 7.5c0 4.703-3.825 8.529-8.527 8.532h-42.651c-42.502 0-77.08 34.578-77.08 77.091 0 6.881.852 13.751 2.531 20.418 1.011 4.016 5.087 6.453 9.104 5.441s6.453-5.088 5.441-9.104c-1.378-5.471-2.077-11.108-2.077-16.766 0-34.231 27.849-62.08 62.08-62.08h45.256l9.524 28.573c3.893 11.678 14.779 19.523 27.088 19.523 4.555 0 8.625 3.094 9.268 7.044.42 2.582-.256 5.072-1.905 7.01-1.627 1.913-3.998 3.01-6.505 3.01h-8.486c-3.823 0-7.034 2.875-7.455 6.675-1.768 15.979-9.414 30.659-21.53 41.338-12.225 10.775-27.962 16.486-44.293 16.097-18.844-.455-36.533-9.549-48.532-24.951-2.546-3.268-7.259-3.854-10.526-1.308-3.268 2.546-3.853 7.259-1.307 10.526 6.316 8.107 13.932 14.79 22.404 19.834v26.357c-3.662-.615-7.408-.354-10.918.726-22.711-.446-30.461-17.814-30.759-18.505zm50.764 65.425c-1.948 1.6-4.39 2.245-6.871 1.815-2.483-.43-4.565-1.856-5.862-4.018l-12.043-20.073 4.618-6.926c2.577-3.866 7.844-4.954 11.742-2.425l26.214 17.005zm67.83 1.815c-2.481.43-4.923-.215-6.871-1.815l-17.798-14.622 26.214-17.005c3.898-2.528 9.166-1.44 11.743 2.425l4.617 6.926-12.043 20.073c-1.297 2.162-3.379 3.588-5.862 4.018z"/><path d="m256.04 448.903h-.08c-4.142 0-7.46 3.358-7.46 7.5s3.398 7.5 7.54 7.5 7.5-3.358 7.5-7.5-3.358-7.5-7.5-7.5z"/><path d="m256.04 480.967h-.08c-4.142 0-7.46 3.358-7.46 7.5s3.398 7.5 7.54 7.5 7.5-3.358 7.5-7.5-3.358-7.5-7.5-7.5z"/><path d="m346.976 64.733c-3.134.977-5.268 3.878-5.268 7.16v47.439c0 4.143 3.358 7.5 7.5 7.5s7.5-3.357 7.5-7.5v-23.38l18.407 26.654c2.142 3.095 5.739 4.404 9.166 3.333 3.482-1.088 5.732-4.31 5.732-8.281l-.444-45.927c-.04-4.142-3.413-7.45-7.572-7.427-4.142.04-7.467 3.43-7.427 7.572l.231 23.877-19.421-28.123c-1.866-2.699-5.271-3.873-8.404-2.897z"/><path d="m121.246 79.63c4.142 0 7.5-3.358 7.5-7.5s-3.358-7.5-7.5-7.5h-19.844c-4.142 0-7.5 3.358-7.5 7.5v47.094c0 4.142 3.358 7.5 7.5 7.5h19.844c4.142 0 7.5-3.358 7.5-7.5 0-4.143-3.358-7.5-7.5-7.5h-12.344v-8.547h10.88c4.142 0 7.5-3.358 7.5-7.5s-3.358-7.5-7.5-7.5h-10.88v-8.547z"/><path d="m160.392 111.724c-4.291 0-8.405-1.713-11.005-4.582-2.781-3.068-7.524-3.303-10.594-.521-3.069 2.781-3.302 7.524-.521 10.594 5.477 6.043 13.539 9.509 22.12 9.509 10.772 0 19.829-6.932 21.534-16.482 1.294-7.248-1.917-16.688-14.812-21.444-5.562-2.051-10.758-4.28-12.632-5.097-.492-.483-.534-1.087-.469-1.541.165-1.147 1.145-2.072 2.688-2.537 5.854-1.765 11.441 2.579 11.646 2.741 3.17 2.619 7.866 2.197 10.517-.957 2.665-3.171 2.255-7.901-.915-10.567-4.321-3.632-14.569-8.895-25.575-5.58-7.148 2.153-12.21 7.812-13.208 14.769-.942 6.563 1.905 12.879 7.431 16.481.331.216.679.405 1.04.566.277.124 6.867 3.057 14.287 5.794 2.758 1.017 5.583 2.795 5.236 4.734-.297 1.662-2.653 4.12-6.768 4.12z"/><path d="m61.742 126.724h.019c4.133 0 7.489-3.346 7.5-7.482l.054-22.062 13.848-21.272c2.26-3.471 1.277-8.118-2.194-10.377s-8.117-1.278-10.377 2.194l-8.782 13.488-8.892-13.618c-2.265-3.469-6.913-4.443-10.38-2.179-3.468 2.264-4.444 6.912-2.179 10.38l13.956 21.373-.054 22.036c-.011 4.143 3.339 7.509 7.481 7.519z"/><path d="m462.15 95.569c0-17.239-14.025-31.264-31.264-31.264s-31.264 14.025-31.264 31.264 14.025 31.264 31.264 31.264 31.264-14.025 31.264-31.264zm-47.528 0c0-8.968 7.296-16.264 16.264-16.264s16.264 7.296 16.264 16.264-7.296 16.264-16.264 16.264-16.264-7.296-16.264-16.264z"/><path d="m139.951 167.822c0-4.142-3.358-7.5-7.5-7.5h-92.887c-13.544 0-24.564-11.02-24.564-24.565v-80.161c0-13.545 11.02-24.564 24.564-24.564h144.291c13.545 0 24.564 11.02 24.564 24.564v34.712c0 4.142 3.358 7.5 7.5 7.5s7.5-3.358 7.5-7.5v-34.712c0-21.816-17.749-39.564-39.564-39.564h-144.291c-21.815 0-39.564 17.748-39.564 39.564v80.161c0 21.816 17.749 39.564 39.564 39.564h92.887c4.142.001 7.5-3.357 7.5-7.499z"/><path d="m472.436 16.032h-144.291c-21.816 0-39.564 17.749-39.564 39.564v34.712c0 4.142 3.358 7.5 7.5 7.5s7.5-3.358 7.5-7.5v-34.712c0-13.545 11.02-24.564 24.564-24.564h144.291c13.545 0 24.564 11.02 24.564 24.564v80.161c0 13.545-11.02 24.564-24.564 24.564h-92.887c-4.142 0-7.5 3.358-7.5 7.5 0 4.143 3.358 7.5 7.5 7.5h92.887c21.816 0 39.564-17.748 39.564-39.564v-80.161c0-21.816-17.749-39.564-39.564-39.564z"/></g></svg>