<svg id="Capa_1" enable-background="new 0 0 512 512" height="512" viewBox="0 0 512 512" width="512" xmlns="http://www.w3.org/2000/svg"><g><path d="m472.436 52.096h-272.549c-21.816 0-39.564 17.749-39.564 39.564v192.387c0 21.816 17.749 39.564 39.564 39.564h165.232l66.638 66.638c3.611 3.611 8.405 5.525 13.296 5.525 2.429 0 4.882-.472 7.226-1.443 7.062-2.925 11.625-9.754 11.625-17.397v-53.322h8.532c21.816 0 39.564-17.749 39.564-39.564v-192.387c0-21.816-17.749-39.565-39.564-39.565zm24.564 231.952c0 13.545-11.02 24.564-24.564 24.564h-16.032c-4.142 0-7.5 3.358-7.5 7.5v60.822c0 2.311-1.654 3.245-2.365 3.54-.712.294-2.542.802-4.175-.831l-68.834-68.834c-1.406-1.407-3.314-2.197-5.303-2.197h-168.34c-13.545 0-24.564-11.02-24.564-24.564v-192.387c0-13.545 11.02-24.564 24.564-24.564h272.548c13.545 0 24.564 11.02 24.564 24.564v192.387z"/><path d="m344.177 340.677c-4.142 0-7.5 3.358-7.5 7.5 0 13.545-11.02 24.565-24.564 24.565h-168.339c-1.989 0-3.897.79-5.303 2.197l-68.834 68.834c-1.635 1.635-3.464 1.125-4.175.831s-2.365-1.229-2.365-3.539v-60.822c0-4.142-3.358-7.5-7.5-7.5h-16.033c-13.544-.001-24.564-11.021-24.564-24.566v-192.387c0-13.545 11.02-24.564 24.564-24.564h96.193c4.142 0 7.5-3.358 7.5-7.5s-3.358-7.5-7.5-7.5h-96.193c-21.815 0-39.564 17.748-39.564 39.564v192.387c0 21.816 17.749 39.565 39.564 39.565h8.532v53.322c0 7.644 4.563 14.472 11.625 17.397 2.344.971 4.796 1.443 7.226 1.443 4.89 0 9.686-1.914 13.296-5.525l66.638-66.637h165.232c21.816 0 39.564-17.749 39.564-39.565 0-4.142-3.358-7.5-7.5-7.5z"/><path d="m71.629 164.322c-12.976 0-23.532 10.557-23.532 23.532s10.557 23.532 23.532 23.532 23.532-10.557 23.532-23.532-10.557-23.532-23.532-23.532zm0 32.065c-4.705 0-8.532-3.828-8.532-8.532s3.828-8.532 8.532-8.532 8.532 3.828 8.532 8.532-3.828 8.532-8.532 8.532z"/><path d="m135.758 180.354h-16.033c-4.142 0-7.5 3.358-7.5 7.5s3.358 7.5 7.5 7.5h16.033c4.142 0 7.5-3.358 7.5-7.5s-3.358-7.5-7.5-7.5z"/><path d="m71.629 228.451c-12.976 0-23.532 10.557-23.532 23.532s10.557 23.532 23.532 23.532 23.532-10.557 23.532-23.532-10.557-23.532-23.532-23.532zm0 32.065c-4.705 0-8.532-3.828-8.532-8.532s3.828-8.532 8.532-8.532 8.532 3.828 8.532 8.532-3.828 8.532-8.532 8.532z"/><path d="m135.758 244.483h-16.033c-4.142 0-7.5 3.358-7.5 7.5s3.358 7.5 7.5 7.5h16.033c4.142 0 7.5-3.358 7.5-7.5s-3.358-7.5-7.5-7.5z"/><path d="m71.629 292.58c-12.976 0-23.532 10.557-23.532 23.532s10.557 23.532 23.532 23.532 23.532-10.557 23.532-23.532-10.557-23.532-23.532-23.532zm0 32.065c-4.705 0-8.532-3.828-8.532-8.532s3.828-8.532 8.532-8.532 8.532 3.828 8.532 8.532-3.828 8.532-8.532 8.532z"/><path d="m135.758 308.612h-16.033c-4.142 0-7.5 3.358-7.5 7.5s3.358 7.5 7.5 7.5h16.033c4.142 0 7.5-3.358 7.5-7.5s-3.358-7.5-7.5-7.5z"/><path d="m450.846 105.79-32.478-5.205c-4.09-.656-7.937 2.129-8.592 6.218-.656 4.09 2.128 7.937 6.218 8.592l10.244 1.642-198.128 104.32c-3.665 1.93-5.072 6.465-3.142 10.13 1.343 2.551 3.947 4.007 6.643 4.007 1.178 0 2.374-.278 3.488-.865l198.153-104.333-4.459 9.406c-1.774 3.743-.179 8.215 3.564 9.99 1.038.492 2.131.725 3.208.725 2.808 0 5.5-1.584 6.782-4.289l14.09-29.721c1.011-2.133.959-4.618-.14-6.707-1.101-2.088-3.12-3.537-5.451-3.91z"/><path d="m440.371 252.5h-16.548v-80.677c0-4.142-3.358-7.5-7.5-7.5s-7.5 3.358-7.5 7.5v80.677h-17.064v-64.645c0-4.142-3.358-7.5-7.5-7.5s-7.5 3.358-7.5 7.5v64.645h-17.065v-48.613c0-4.142-3.358-7.5-7.5-7.5s-7.5 3.358-7.5 7.5v48.613h-17.064v-32.581c0-4.142-3.358-7.5-7.5-7.5s-7.5 3.358-7.5 7.5v32.581h-17.064v-16.548c0-4.142-3.358-7.5-7.5-7.5s-7.5 3.358-7.5 7.5v16.548h-17.066v-.516c0-4.142-3.358-7.5-7.5-7.5s-7.5 3.358-7.5 7.5v.516h-16.548c-4.142 0-7.5 3.358-7.5 7.5s3.358 7.5 7.5 7.5h208.419c4.142 0 7.5-3.358 7.5-7.5s-3.358-7.5-7.5-7.5z"/></g></svg>