<svg id="Capa_1" enable-background="new 0 0 512.001 512.001" height="512" viewBox="0 0 512.001 512.001" width="512" xmlns="http://www.w3.org/2000/svg"><g><path d="m87.662 336.678c-4.142 0-7.5 3.357-7.5 7.5v8.016c0 4.143 3.358 7.5 7.5 7.5s7.5-3.357 7.5-7.5v-8.016c0-4.143-3.358-7.5-7.5-7.5z"/><path d="m135.759 336.678c-4.142 0-7.5 3.357-7.5 7.5v8.016c0 4.143 3.358 7.5 7.5 7.5s7.5-3.357 7.5-7.5v-8.016c0-4.143-3.358-7.5-7.5-7.5z"/><path d="m204.299 459.295-25.456-10.91 25.236-10.819c11.581-4.965 17.12-18.212 12.61-30.158-6.172-16.349-9.302-33.5-9.302-50.976v-36.304c0-48.336-39.325-87.661-87.662-87.661h-16.032c-48.336 0-87.661 39.325-87.661 87.661v36.304c0 17.476-3.13 34.627-9.302 50.976-4.51 11.945 1.029 25.192 12.61 30.157l25.236 10.82-25.456 10.909c-11.614 4.979-19.12 16.362-19.12 28.999v16.207c0 4.142 3.358 7.5 7.5 7.5s7.5-3.358 7.5-7.5v-16.207c0-6.629 3.937-12.599 10.03-15.21l32.542-13.947 6.632 46.425c.535 3.741 3.743 6.44 7.416 6.44.353 0 .71-.025 1.07-.076 4.101-.586 6.95-4.385 6.364-8.485l-4.921-34.45c4.044 2.848 8.781 4.295 13.529 4.295 5.988 0 11.972-2.27 16.548-6.798v21.983c0 4.142 3.358 7.5 7.5 7.5s7.5-3.358 7.5-7.5v-21.983c4.577 4.529 10.561 6.799 16.548 6.799 4.748 0 9.485-1.447 13.529-4.295l-4.921 34.45c-.585 4.101 2.264 7.9 6.364 8.485.36.052.717.076 1.07.076 3.672 0 6.881-2.7 7.416-6.44l6.632-46.425 32.542 13.947c6.093 2.611 10.03 8.582 10.03 15.21v16.206c0 4.142 3.358 7.5 7.5 7.5s7.5-3.358 7.5-7.5v-16.207c0-12.637-7.505-24.02-19.121-28.998zm-183.535-46.588c6.814-18.048 10.269-36.981 10.269-56.274v-36.304c0-40.065 32.596-72.661 72.661-72.661h16.032c40.066 0 72.662 32.596 72.662 72.661v36.304c0 19.292 3.455 38.226 10.269 56.274 1.667 4.416-.304 9.279-4.488 11.073l-35.583 15.256-5.541-8.311c-2.958-4.438-7.669-7.499-12.926-8.399-.286-.049-.574-.066-.861-.102v-14.826c19.136-10.979 32.064-31.604 32.064-55.204 0-4.142-3.358-7.5-7.5-7.5s-7.5 3.358-7.5 7.5c0 26.806-21.808 48.613-48.613 48.613s-48.613-21.808-48.613-48.613c0-22.385 18.211-40.597 40.597-40.597h48.097c4.705 0 8.532 3.828 8.532 8.532 0 4.143 3.358 7.5 7.5 7.5s7.5-3.357 7.5-7.5c0-12.976-10.557-23.532-23.532-23.532h-48.097c-30.656 0-55.597 24.94-55.597 55.597 0 23.6 12.928 44.224 32.064 55.204v14.826c-.287.036-.575.053-.861.102-5.256.9-9.968 3.962-12.925 8.399l-5.541 8.311-35.582-15.256c-4.183-1.794-6.154-6.657-4.487-11.073zm90.946 26.305-16.548-12.412v-12.99c5.28 1.424 10.825 2.197 16.549 2.197s11.268-.772 16.548-2.197v12.991zm-18.015 16.783c-3.326 3.327-8.74 3.328-12.067 0l-8.364-8.364 5.592-8.387c.933-1.399 2.266-1.813 2.977-1.935.711-.123 2.107-.175 3.452.833l15.007 11.255zm36.03 0-6.597-6.597 15.007-11.255c1.345-1.009 2.74-.956 3.452-.833.711.122 2.044.536 2.978 1.935l5.591 8.387-8.364 8.364c-3.326 3.326-8.74 3.327-12.067-.001z"/><path d="m376.242 336.678c-4.142 0-7.5 3.357-7.5 7.5v8.016c0 4.143 3.358 7.5 7.5 7.5s7.5-3.357 7.5-7.5v-8.016c0-4.143-3.358-7.5-7.5-7.5z"/><path d="m424.339 359.693c4.142 0 7.5-3.357 7.5-7.5v-8.016c0-4.143-3.358-7.5-7.5-7.5s-7.5 3.357-7.5 7.5v8.016c0 4.143 3.358 7.5 7.5 7.5z"/><path d="m492.88 459.295-39.489-16.924-7.765-11.647c-2.958-4.438-7.669-7.499-12.926-8.399-.286-.049-.574-.066-.861-.102v-14.826c19.136-10.979 32.064-31.604 32.064-55.204v-.191c0-1.79-.133-3.562-.373-5.309l2.52-5.039c3.839-7.68 5.869-16.278 5.869-24.863v-36.743c0-17.396-14.152-31.548-31.548-31.548h-64.129c-26.236 0-47.581 21.345-47.581 47.581v20.71c0 8.585 2.03 17.183 5.87 24.863l2.146 4.293v6.246c0 23.6 12.928 44.224 32.065 55.204v14.826c-.287.036-.576.053-.862.102-5.256.9-9.968 3.962-12.925 8.399l-7.765 11.647-39.489 16.924c-11.615 4.978-19.121 16.36-19.121 28.998v16.207c0 4.142 3.358 7.5 7.5 7.5s7.5-3.358 7.5-7.5v-16.207c0-6.629 3.937-12.599 10.03-15.21l32.542-13.947 6.632 46.425c.535 3.741 3.743 6.44 7.416 6.44.353 0 .71-.025 1.07-.076 4.101-.586 6.95-4.385 6.364-8.485l-4.922-34.45c4.045 2.848 8.781 4.295 13.529 4.295 5.988 0 11.973-2.27 16.549-6.799v38.014c0 4.142 3.358 7.5 7.5 7.5s7.5-3.358 7.5-7.5v-38.015c4.577 4.529 10.561 6.798 16.548 6.798 4.748 0 9.485-1.447 13.529-4.295l-4.922 34.45c-.585 4.101 2.264 7.9 6.364 8.485.36.052.717.076 1.07.076 3.672 0 6.881-2.7 7.416-6.44l6.632-46.425 32.542 13.947c6.093 2.611 10.03 8.582 10.03 15.21v16.209c0 4.142 3.358 7.5 7.5 7.5s7.5-3.358 7.5-7.5v-16.207c.001-12.637-7.504-24.02-19.119-28.998zm-141.202-107.102v-12.247c0-9.365 5.203-17.784 13.579-21.972l5.81-2.904c3.786-1.893 8.102-2.265 12.156-1.05l22.929 6.879c3.967 1.192 8.149-1.061 9.339-5.028s-1.061-8.148-5.028-9.339l-22.929-6.879c-7.729-2.318-15.958-1.607-23.174 2l-5.81 2.905c-6.111 3.055-11.158 7.518-14.868 12.877-.004-.215-.019-.43-.019-.645v-20.71c0-17.965 14.616-32.581 32.581-32.581h64.129c9.125 0 16.548 7.424 16.548 16.548v36.743c0 3.652-.518 7.304-1.492 10.828-3.684-4.711-8.419-8.626-13.973-11.289-3.734-1.791-8.214-.214-10.005 3.521s-.214 8.214 3.521 10.005c8.464 4.058 13.933 12.751 13.933 22.146v.191c0 26.806-21.808 48.613-48.613 48.613-26.807.002-48.614-21.806-48.614-48.612zm48.613 63.614c5.724 0 11.268-.772 16.548-2.197v12.991l-16.548 12.412-16.548-12.411v-12.992c5.28 1.424 10.824 2.197 16.548 2.197zm-18.015 39.988c-3.326 3.327-8.74 3.328-12.067 0l-8.364-8.364 5.592-8.387c.933-1.399 2.266-1.813 2.977-1.935.711-.123 2.107-.175 3.452.833l15.007 11.255zm36.03.001-6.597-6.597 15.007-11.255c1.345-1.009 2.74-.956 3.452-.833.711.122 2.044.536 2.978 1.935l5.591 8.387-8.364 8.364c-3.327 3.325-8.74 3.326-12.067-.001z"/><path d="m127.742 95.161h24.565v24.564c0 4.143 3.358 7.5 7.5 7.5s7.5-3.357 7.5-7.5v-24.564h24.564c4.142 0 7.5-3.357 7.5-7.5 0-4.142-3.358-7.5-7.5-7.5h-24.564v-24.564c0-4.142-3.358-7.5-7.5-7.5s-7.5 3.358-7.5 7.5v24.564h-24.565c-4.142 0-7.5 3.358-7.5 7.5 0 4.143 3.358 7.5 7.5 7.5z"/><path d="m336.162 143.258c4.142 0 7.5-3.357 7.5-7.5 0-4.142-3.358-7.5-7.5-7.5h-64.129c-4.142 0-7.5 3.358-7.5 7.5 0 4.143 3.358 7.5 7.5 7.5z"/><path d="m111.71 175.322h8.532v32.581c0 3.033 1.827 5.769 4.63 6.929.928.384 1.902.571 2.869.571 1.952 0 3.87-.762 5.305-2.197l37.884-37.884h36.974c21.816 0 39.564-17.748 39.564-39.564v-96.194c0-21.815-17.748-39.564-39.564-39.564h-96.194c-21.816 0-39.564 17.749-39.564 39.564v96.193c0 21.817 17.748 39.565 39.564 39.565zm-24.564-135.758c0-13.544 11.019-24.564 24.564-24.564h96.194c13.545 0 24.564 11.02 24.564 24.564v96.193c0 13.545-11.02 24.564-24.564 24.564h-40.081c-1.989 0-3.897.79-5.303 2.197l-27.278 27.277v-21.975c0-4.142-3.358-7.5-7.5-7.5h-16.032c-13.545 0-24.564-11.02-24.564-24.564z"/><path d="m312.115 263.5c.966 0 1.941-.187 2.869-.571 2.803-1.161 4.63-3.896 4.63-6.929v-32.581h32.581c21.816 0 39.565-17.749 39.565-39.565v-96.193c0-21.815-17.749-39.564-39.565-39.564h-80.161c-4.142 0-7.5 3.358-7.5 7.5s3.358 7.5 7.5 7.5h80.161c13.545 0 24.565 11.02 24.565 24.564v96.193c0 13.545-11.02 24.565-24.565 24.565h-40.081c-4.142 0-7.5 3.358-7.5 7.5v21.974l-27.277-27.277c-1.406-1.406-3.314-2.197-5.303-2.197h-16.034c-9.6 0-18.379-5.646-22.365-14.385-1.719-3.769-6.167-5.429-9.937-3.711-3.769 1.719-5.43 6.168-3.711 9.937 6.417 14.069 20.553 23.16 36.012 23.16h12.926l37.884 37.884c1.436 1.434 3.354 2.196 5.306 2.196z"/></g></svg>