<svg fill='white' id="Capa_1" enable-background="new 0 0 512 512" height="512" viewBox="0 0 512 512" width="512" xmlns="http://www.w3.org/2000/svg"><g><path d="m231.952 323.621h256.516c12.976 0 23.532-10.557 23.532-23.532v-208.42c0-12.976-10.557-23.532-23.532-23.532h-93.679c-10.568 0-20.504 4.116-27.977 11.588l-13.281 13.281c-4.64 4.64-10.809 7.195-17.37 7.195h-104.209c-12.976 0-23.532 10.557-23.532 23.532v176.355c-.001 12.976 10.556 23.533 23.532 23.533zm162.837-240.484h24.725l-9.87 9.87c-4.64 4.64-10.808 7.195-17.37 7.195h-24.725l9.87-9.87c4.64-4.64 10.809-7.195 17.37-7.195zm93.679 225.484h-256.516c-4.705 0-8.532-3.828-8.532-8.532v-176.355c0-4.705 3.828-8.532 8.532-8.532h160.323c10.568 0 20.503-4.116 27.976-11.588l13.282-13.281c4.64-4.64 10.808-7.195 17.37-7.195h37.566c4.705 0 8.532 3.828 8.532 8.532v208.419c-.001 4.704-3.829 8.532-8.533 8.532z"/><path d="m376.242 164.331h48.097c4.142 0 7.5 3.358 7.5 7.5s-3.358 7.5-7.5 7.5h-48.097c-4.705 0-8.532 3.828-8.532 8.532v80.162c0 4.704 3.828 8.532 8.532 8.532h80.162c4.705 0 8.532-3.828 8.532-8.532v-80.162c0-4.705-3.828-8.532-8.532-8.532-4.142 0-7.5-3.358-7.5-7.5s3.358-7.5 7.5-7.5c12.976 0 23.532 10.557 23.532 23.532v80.162c0 12.976-10.557 23.532-23.532 23.532h-80.162c-12.976 0-23.532-10.557-23.532-23.532v-80.162c-.001-12.976 10.556-23.532 23.532-23.532z"/><path d="m23.532 220.443h104.209c6.562 0 12.73-2.555 17.37-7.194l13.281-13.282c6.657-6.656 15.49-10.729 24.874-11.466 4.127-.321 7.74 2.759 8.065 6.889s-2.76 7.74-6.889 8.065c-5.825.458-11.31 2.986-15.443 7.119l-9.87 9.87h24.725c4.142 0 7.5 3.358 7.5 7.5 0 4.143-3.358 7.5-7.5 7.5h-160.322c-4.705 0-8.532 3.828-8.532 8.532v176.355c0 4.705 3.828 8.532 8.532 8.532h256.516c4.705 0 8.532-3.828 8.532-8.532v-72.145c0-4.142 3.358-7.5 7.5-7.5s7.5 3.358 7.5 7.5v72.145c0 12.976-10.557 23.532-23.532 23.532h-256.516c-12.975 0-23.532-10.557-23.532-23.532v-176.355c0-12.976 10.557-23.533 23.532-23.533z"/><path d="m264.016 340.686c4.142 0 7.5 3.358 7.5 7.5v40.081c0 12.976-10.557 23.532-23.532 23.532h-80.161c-12.976 0-23.532-10.557-23.532-23.532v-80.162c0-12.976 10.557-23.532 23.532-23.532h16.032c4.142 0 7.5 3.358 7.5 7.5 0 4.143-3.358 7.5-7.5 7.5h-16.032c-4.705 0-8.532 3.828-8.532 8.532v80.162c0 4.705 3.828 8.532 8.532 8.532h80.161c4.705 0 8.532-3.828 8.532-8.532v-40.081c0-4.143 3.358-7.5 7.5-7.5z"/><path d="m440.371 235.443h-16.548v16.549c0 4.142-3.358 7.5-7.5 7.5s-7.5-3.358-7.5-7.5v-16.549h-16.548c-4.142 0-7.5-3.357-7.5-7.5 0-4.142 3.358-7.5 7.5-7.5h16.548v-16.548c0-4.143 3.358-7.5 7.5-7.5s7.5 3.357 7.5 7.5v16.548h16.548c4.142 0 7.5 3.358 7.5 7.5 0 4.143-3.358 7.5-7.5 7.5z"/><path d="m183.855 355.686c-4.142 0-7.5-3.358-7.5-7.5s3.358-7.5 7.5-7.5h48.097c4.142 0 7.5 3.358 7.5 7.5s-3.358 7.5-7.5 7.5z"/><path d="m256.516 211.065v17.725c0 8.089 6.581 14.67 14.67 14.67h49.789c8.089 0 14.67-6.581 14.67-14.67v-17.725c0-8.089-6.581-14.669-14.67-14.669h-49.789c-8.089 0-14.67 6.58-14.67 14.669zm15 .331h49.129v17.064h-49.129z"/><path d="m288.064 260.524h40.081c4.142 0 7.5 3.357 7.5 7.5 0 4.142-3.358 7.5-7.5 7.5h-40.081c-4.142 0-7.5-3.358-7.5-7.5s3.358-7.5 7.5-7.5z"/><path d="m127.226 349.032v-17.725c0-8.089-6.581-14.669-14.669-14.669h-49.79c-8.089 0-14.67 6.581-14.67 14.669v17.725c0 8.089 6.581 14.67 14.67 14.67h49.79c8.088 0 14.669-6.581 14.669-14.67zm-15-.33h-49.129v-17.064h49.129z"/><path d="m119.726 395.766h-40.081c-4.142 0-7.5-3.358-7.5-7.5s3.358-7.5 7.5-7.5h40.081c4.142 0 7.5 3.358 7.5 7.5s-3.358 7.5-7.5 7.5z"/></g></svg>