<svg fill='white' id="Capa_1" enable-background="new 0 0 512.001 512.001" height="512" viewBox="0 0 512.001 512.001" width="512" xmlns="http://www.w3.org/2000/svg"><g><path d="m223.936 279.532c4.142 0 7.5-3.358 7.5-7.5v-8.016c0-4.142-3.358-7.5-7.5-7.5s-7.5 3.358-7.5 7.5v8.016c0 4.142 3.358 7.5 7.5 7.5z"/><path d="m159.807 279.532c4.142 0 7.5-3.358 7.5-7.5v-8.016c0-4.142-3.358-7.5-7.5-7.5s-7.5 3.358-7.5 7.5v8.016c0 4.142 3.358 7.5 7.5 7.5z"/><path d="m312.15 417.038-51.116-22.718-6.043-9.065c-3.697-5.545-9.403-9.012-15.539-10.088v-31.217c15.448-11.504 26.623-28.517 30.526-48.386h2.054c6.914 0 13.449-3.022 17.931-8.292 4.48-5.268 6.406-12.242 5.285-19.137-.87-5.346-3.699-10.05-7.7-13.52v-62.744c0-26.236-21.345-47.581-47.581-47.581h-80.161c-35.077 0-63.613 28.537-63.613 63.613v46.711c-4 3.471-6.83 8.174-7.699 13.521-1.122 6.894.804 13.869 5.284 19.136 4.482 5.271 11.018 8.293 17.932 8.293h2.055c3.903 19.868 15.079 36.882 30.526 48.385v31.217c-6.136 1.075-11.842 4.542-15.539 10.088l-6.044 9.066-51.115 22.718c-14.273 6.344-23.496 20.535-23.496 36.155v51.307c0 4.142 3.358 7.5 7.5 7.5s7.5-3.358 7.5-7.5v-51.307c0-9.698 5.726-18.509 14.588-22.448l44.137-19.616 14.541 94.511c.57 3.708 3.765 6.36 7.403 6.36.379 0 .764-.029 1.15-.088 4.094-.63 6.902-4.459 6.272-8.553l-10.685-69.45c3.213 2.806 7.162 4.719 11.461 5.462 1.338.231 2.682.345 4.019.345 5.406 0 10.688-1.864 14.931-5.351l13.458-11.056v81.19c0 4.142 3.358 7.5 7.5 7.5s7.5-3.358 7.5-7.5v-81.189l13.458 11.056c4.244 3.487 9.525 5.351 14.931 5.351 1.336 0 2.681-.114 4.019-.345 4.3-.744 8.248-2.656 11.461-5.462l-10.685 69.45c-.63 4.094 2.178 7.923 6.272 8.553.387.06.771.088 1.15.088 3.639 0 6.833-2.653 7.403-6.36l14.54-94.511 44.136 19.616c8.862 3.938 14.588 12.75 14.588 22.448v51.306c0 4.142 3.358 7.5 7.5 7.5s7.5-3.358 7.5-7.5v-51.307c.001-15.62-9.222-29.811-23.495-36.155zm-184.499-129.799c-.42-3.799-3.632-6.675-7.455-6.675h-8.486c-2.507 0-4.878-1.097-6.505-3.01-1.648-1.938-2.325-4.428-1.905-7.01.643-3.95 4.713-7.044 9.268-7.044h7.158c12.976 0 23.533-10.557 23.533-23.532v-13.579c0-2.511 1.045-4.8 2.942-6.446 1.897-1.645 4.31-2.356 6.797-2l53.846 7.692c4.094.582 7.899-2.264 8.485-6.364.585-4.101-2.264-7.899-6.364-8.485l-53.846-7.692c-6.757-.964-13.589 1.045-18.746 5.518-5.157 4.472-8.114 10.952-8.114 17.778v13.579c0 4.705-3.828 8.532-8.533 8.532h-8.532v-40.597c0-26.805 21.808-48.613 48.613-48.613h80.161c17.965 0 32.581 14.616 32.581 32.581v56.628h-8.532c-4.705 0-8.532-3.828-8.532-8.532 0-9.265-4.987-17.894-13.016-22.521-3.589-2.068-8.175-.835-10.243 2.754s-.835 8.175 2.754 10.243c3.396 1.957 5.505 5.605 5.505 9.523 0 12.976 10.557 23.532 23.532 23.532h7.158c4.554 0 8.625 3.094 9.268 7.044.42 2.582-.256 5.071-1.905 7.01-1.627 1.913-3.998 3.01-6.505 3.01h-8.486c-3.823 0-7.034 2.875-7.455 6.675-3.625 32.754-31.233 57.454-64.22 57.454-32.987.001-60.596-24.698-64.221-57.453zm33.741 135.538c-1.947 1.6-4.387 2.244-6.871 1.814-2.483-.43-4.565-1.856-5.862-4.018l-12.044-20.072 4.618-6.926c2.577-3.866 7.843-4.955 11.742-2.425l26.213 17.005zm30.479-24.274-30.732-19.936c-.604-.392-1.222-.748-1.848-1.077v-24.745c9.972 4.465 21.004 6.949 32.581 6.949s22.609-2.484 32.581-6.949v24.745c-.626.329-1.244.685-1.848 1.077zm43.213 22.071c-1.297 2.161-3.378 3.588-5.862 4.018-2.482.43-4.923-.214-6.871-1.814l-17.797-14.622 26.213-17.005c3.898-2.528 9.166-1.44 11.743 2.425l4.617 6.926z"/><path d="m171.362 312.979c6.482 3.536 13.383 5.328 20.51 5.328 7.126 0 14.027-1.792 20.509-5.328 3.637-1.983 4.977-6.539 2.994-10.175s-6.538-4.977-10.175-2.994c-4.255 2.32-8.739 3.497-13.328 3.497s-9.073-1.177-13.327-3.497c-3.638-1.982-8.193-.643-10.176 2.993-1.984 3.637-.643 8.193 2.993 10.176z"/><path d="m424.339 0h-184.371c-21.816 0-39.564 17.749-39.564 39.564v80.161c0 4.142 3.358 7.5 7.5 7.5s7.5-3.358 7.5-7.5v-80.161c0-13.545 11.02-24.564 24.564-24.564h184.371c13.545 0 24.564 11.02 24.564 24.564v184.371c0 13.545-11.02 24.564-24.564 24.564h-104.21c-4.142 0-7.5 3.358-7.5 7.5s3.358 7.5 7.5 7.5h104.21c21.816 0 39.564-17.749 39.564-39.564v-184.371c.001-21.815-17.748-39.564-39.564-39.564z"/><path d="m392.275 87.145c12.976 0 23.532-10.557 23.532-23.532s-10.557-23.532-23.532-23.532h-32.065c-10.354 0-19.16 6.724-22.3 16.032h-19.53c-3.139-9.308-11.946-16.032-22.3-16.032h-32.064c-12.976 0-23.532 10.557-23.532 23.532s10.557 23.532 23.532 23.532h8.532v17.064h-8.532c-8.373 0-16.181 4.505-20.377 11.758-2.075 3.585-.851 8.173 2.735 10.248 3.583 2.075 8.173.851 10.248-2.735 1.524-2.634 4.358-4.271 7.395-4.271h32.064c4.705 0 8.532 3.828 8.532 8.532v8.017c0 3.037-1.636 5.87-4.271 7.395-3.585 2.075-4.809 6.663-2.734 10.248 1.39 2.402 3.909 3.745 6.498 3.745 1.275 0 2.567-.326 3.75-1.01 7.252-4.197 11.757-12.005 11.757-20.377v-8.017c0-12.976-10.557-23.532-23.532-23.532h-8.532v-17.065h8.532c10.354 0 19.16-6.724 22.3-16.032h19.53c3.139 9.308 11.946 16.032 22.3 16.032h8.532v17.064h-8.532c-12.976 0-23.532 10.557-23.532 23.532v8.017c0 12.976 10.557 23.532 23.532 23.532h8.532v17.064h-8.532c-12.976 0-23.532 10.557-23.532 23.532s10.557 23.532 23.532 23.532h32.065c12.976 0 23.532-10.557 23.532-23.532s-10.557-23.532-23.532-23.532h-8.533v-17.064h8.533c12.976 0 23.532-10.557 23.532-23.532v-8.017c0-12.976-10.557-23.532-23.532-23.532h-8.533v-17.064zm8.532 112.742c0 4.705-3.828 8.532-8.532 8.532h-32.065c-4.705 0-8.532-3.828-8.532-8.532s3.828-8.532 8.532-8.532h32.065c4.704 0 8.532 3.828 8.532 8.532zm0-72.145v8.017c0 4.705-3.828 8.532-8.532 8.532h-32.065c-4.705 0-8.532-3.828-8.532-8.532v-8.017c0-4.705 3.828-8.532 8.532-8.532h32.065c4.704-.001 8.532 3.827 8.532 8.532zm-104.726-55.597h-32.064c-4.705 0-8.532-3.828-8.532-8.532s3.828-8.532 8.532-8.532h32.064c4.705 0 8.532 3.828 8.532 8.532s-3.827 8.532-8.532 8.532zm55.597-8.532c0-4.705 3.828-8.532 8.532-8.532h32.065c4.705 0 8.532 3.828 8.532 8.532s-3.828 8.532-8.532 8.532h-32.065c-4.705 0-8.532-3.828-8.532-8.532z"/></g></svg>