<svg fill='white' id="Capa_1" enable-background="new 0 0 512 512" height="512" viewBox="0 0 512 512" width="512" xmlns="http://www.w3.org/2000/svg"><g><path d="m304.097 112.226h-81.39c-3.514-18.243-19.599-32.064-38.852-32.064s-35.337 13.822-38.852 32.064h-81.39c-21.816 0-39.564 17.749-39.564 39.565v320.645c0 21.816 17.749 39.564 39.564 39.564h240.484c21.816 0 39.564-17.749 39.564-39.564v-320.645c0-21.817-17.748-39.565-39.564-39.565zm-152.306 15c4.142 0 7.5-3.358 7.5-7.5 0-13.545 11.02-24.564 24.564-24.564s24.564 11.02 24.564 24.564c0 4.142 3.358 7.5 7.5 7.5h24.564v24.565c0 4.705-3.828 8.532-8.532 8.532h-96.193c-4.705 0-8.533-3.828-8.533-8.532v-24.565zm176.87 345.21c0 13.545-11.02 24.564-24.564 24.564h-240.484c-13.545 0-24.564-11.02-24.564-24.564v-320.645c0-13.545 11.02-24.565 24.564-24.565h48.613v24.565c0 12.976 10.557 23.532 23.533 23.532h96.193c10.353 0 19.16-6.724 22.3-16.032h42.345v305.645h-225.484v-305.645h16.548c4.142 0 7.5-3.358 7.5-7.5s-3.358-7.5-7.5-7.5h-24.048c-4.142 0-7.5 3.358-7.5 7.5v320.645c0 4.142 3.358 7.5 7.5 7.5h240.484c4.142 0 7.5-3.358 7.5-7.5v-320.645c0-4.142-3.358-7.5-7.5-7.5h-48.613v-17.065h48.613c13.545 0 24.564 11.02 24.564 24.565z"/><path d="m183.935 127.226c4.142 0 7.5-3.358 7.5-7.5s-3.358-7.5-7.5-7.5h-.08c-4.142 0-7.46 3.358-7.46 7.5s3.398 7.5 7.54 7.5z"/><path d="m127.742 247.468c12.976 0 23.533-10.557 23.533-23.532s-10.557-23.532-23.533-23.532-23.532 10.557-23.532 23.532 10.556 23.532 23.532 23.532zm0-32.065c4.705 0 8.533 3.828 8.533 8.532s-3.828 8.532-8.533 8.532-8.532-3.828-8.532-8.532 3.827-8.532 8.532-8.532z"/><path d="m175.839 231.436h80.161c4.142 0 7.5-3.358 7.5-7.5s-3.358-7.5-7.5-7.5h-80.161c-4.142 0-7.5 3.358-7.5 7.5s3.358 7.5 7.5 7.5z"/><path d="m127.742 311.597c12.976 0 23.533-10.557 23.533-23.532s-10.557-23.532-23.533-23.532-23.532 10.557-23.532 23.532 10.556 23.532 23.532 23.532zm0-32.065c4.705 0 8.533 3.828 8.533 8.532s-3.828 8.532-8.533 8.532-8.532-3.828-8.532-8.532 3.827-8.532 8.532-8.532z"/><path d="m175.839 295.564h80.161c4.142 0 7.5-3.358 7.5-7.5s-3.358-7.5-7.5-7.5h-80.161c-4.142 0-7.5 3.358-7.5 7.5s3.358 7.5 7.5 7.5z"/><path d="m127.742 375.726c12.976 0 23.533-10.557 23.533-23.532s-10.557-23.532-23.533-23.532-23.532 10.557-23.532 23.532 10.556 23.532 23.532 23.532zm0-32.065c4.705 0 8.533 3.828 8.533 8.532s-3.828 8.532-8.533 8.532-8.532-3.828-8.532-8.532 3.827-8.532 8.532-8.532z"/><path d="m175.839 359.693h80.161c4.142 0 7.5-3.358 7.5-7.5s-3.358-7.5-7.5-7.5h-80.161c-4.142 0-7.5 3.358-7.5 7.5s3.358 7.5 7.5 7.5z"/><path d="m127.742 439.855c12.976 0 23.533-10.557 23.533-23.532s-10.557-23.532-23.533-23.532-23.532 10.557-23.532 23.532 10.556 23.532 23.532 23.532zm0-32.064c4.705 0 8.533 3.828 8.533 8.532s-3.828 8.532-8.533 8.532-8.532-3.828-8.532-8.532 3.827-8.532 8.532-8.532z"/><path d="m175.839 423.823h80.161c4.142 0 7.5-3.358 7.5-7.5s-3.358-7.5-7.5-7.5h-80.161c-4.142 0-7.5 3.358-7.5 7.5s3.358 7.5 7.5 7.5z"/><path d="m376.242 0c-25.307 0-50.098 8.698-69.808 24.493-19.407 15.552-33.226 37.373-38.913 61.444-.952 4.031 1.544 8.071 5.575 9.023 4.032.95 8.071-1.544 9.023-5.575 4.92-20.829 16.886-39.718 33.694-53.187 17.307-13.868 38.202-21.198 60.429-21.198 53.326 0 96.71 43.384 96.71 96.709 0 53.326-43.384 96.71-96.71 96.71-2.479 0-4.985-.095-7.448-.282-4.12-.315-7.733 2.779-8.047 6.91-.314 4.13 2.78 7.733 6.91 8.047 2.839.216 5.727.325 8.584.325 61.597 0 111.71-50.113 111.71-111.71.001-61.596-50.112-111.709-111.709-111.709z"/><path d="m399.774 111.709c0-.271-.011-.538-.021-.807l43.25-16.219c3.878-1.455 5.844-5.777 4.389-9.656-1.454-3.879-5.778-5.843-9.656-4.389l-43.255 16.222c-4.319-5.294-10.89-8.683-18.239-8.683-3.757 0-7.309.89-10.463 2.463l-32.33-32.33c-2.929-2.929-7.678-2.929-10.606 0-2.929 2.929-2.929 7.678 0 10.606l32.33 32.33c-1.573 3.154-2.463 6.706-2.463 10.463 0 12.976 10.557 23.532 23.532 23.532 12.976.001 23.532-10.556 23.532-23.532zm-32.065 0c0-4.705 3.828-8.532 8.532-8.532 4.705 0 8.533 3.828 8.533 8.532s-3.828 8.532-8.533 8.532c-4.704.001-8.532-3.827-8.532-8.532z"/></g></svg>