<svg fill='white' id="Capa_1" enable-background="new 0 0 512 512" height="512" viewBox="0 0 512 512" width="512" xmlns="http://www.w3.org/2000/svg"><g><path d="m183.339 127.742c0-4.142-3.358-7.5-7.5-7.5h-80.162c-4.142 0-7.5 3.358-7.5 7.5s3.358 7.5 7.5 7.5h80.162c4.142 0 7.5-3.358 7.5-7.5z"/><path d="m336.161 71.113h80.162c4.142 0 7.5-3.358 7.5-7.5s-3.358-7.5-7.5-7.5h-80.162c-4.142 0-7.5 3.358-7.5 7.5s3.358 7.5 7.5 7.5z"/><path d="m437.658 154.503c-1.406-1.407-3.314-2.197-5.303-2.197h-152.823v-49.129h152.823c1.989 0 3.897-.79 5.303-2.197l32.064-32.064c2.929-2.929 2.929-7.678 0-10.606l-32.064-32.064c-1.406-1.407-3.314-2.197-5.303-2.197h-152.823v-.516c0-12.976-10.556-23.533-23.532-23.533s-23.532 10.557-23.532 23.532v64.645h-152.823c-1.989 0-3.897.79-5.303 2.197l-32.064 32.064c-2.929 2.929-2.929 7.678 0 10.606l32.064 32.065c1.406 1.407 3.314 2.197 5.303 2.197h80.162c4.142 0 7.5-3.358 7.5-7.5s-3.358-7.5-7.5-7.5h-77.056l-24.564-24.565 24.564-24.564h117.652v49.129h-8.532c-4.142 0-7.5 3.358-7.5 7.5s3.358 7.5 7.5 7.5h40.597v297.629h-64.645c-8.556 0-15.516 6.96-15.516 15.516v16.032c0 8.556 6.96 15.517 15.516 15.517h176.354c8.556 0 15.516-6.961 15.516-15.517v-16.032c0-8.555-6.96-15.516-15.516-15.516h-24.048c-4.142 0-7.5 3.358-7.5 7.5s3.358 7.5 7.5 7.5h24.048c.285 0 .516.231.516.516v16.032c0 .285-.231.517-.516.517h-176.354c-.285 0-.516-.231-.516-.517v-16.032c0-.284.231-.516.516-.516h120.242c4.142 0 7.5-3.358 7.5-7.5s-3.358-7.5-7.5-7.5h-8.532v-233.5h152.823c1.989 0 3.897-.79 5.303-2.197l32.064-32.064c2.929-2.929 2.929-7.678 0-10.606zm16.155-90.89-24.564 24.564h-117.652v-49.129h117.652zm-157.216-24.565v49.129h-17.064v-49.129zm-81.194 113.259v-49.129h17.064v49.129zm32.065 312.629v-441.404c0-4.705 3.828-8.532 8.532-8.532s8.532 3.828 8.532 8.532v441.403h-17.064zm32.064-297.629h17.064v49.129h-17.064zm149.717 49.129h-117.652v-49.129h117.652l24.564 24.564z"/><path d="m416.323 184.371h-80.162c-4.142 0-7.5 3.358-7.5 7.5s3.358 7.5 7.5 7.5h80.162c4.142 0 7.5-3.358 7.5-7.5s-3.358-7.5-7.5-7.5z"/></g></svg>