<svg fill='white' id="Capa_1" enable-background="new 0 0 512 512" height="512" viewBox="0 0 512 512" width="512" xmlns="http://www.w3.org/2000/svg"><g><path d="m424.339 0h-336.678c-12.975 0-23.532 10.557-23.532 23.532v464.936c0 12.976 10.557 23.532 23.532 23.532h262.587c8.426 0 16.349-3.281 22.308-9.24l66.074-66.074c5.959-5.958 9.241-13.881 9.241-22.309v-390.845c0-12.975-10.557-23.532-23.532-23.532zm-336.678 497c-4.705 0-8.532-3.828-8.532-8.532v-464.936c0-4.705 3.828-8.532 8.532-8.532h336.678c4.705 0 8.532 3.828 8.532 8.532v390.845c0 .833-.081 1.652-.201 2.461h-56.429c-12.976 0-23.532 10.557-23.532 23.532v56.428c-.809.12-1.628.201-2.461.201h-262.587zm280.048-10.606v-46.022c0-4.705 3.828-8.532 8.532-8.532h46.022z"/><path d="m328.145 95.161c12.976 0 23.532-10.557 23.532-23.532s-10.557-23.532-23.532-23.532-23.532 10.557-23.532 23.532 10.556 23.532 23.532 23.532zm0-32.064c4.705 0 8.532 3.828 8.532 8.532s-3.828 8.532-8.532 8.532-8.532-3.828-8.532-8.532 3.827-8.532 8.532-8.532z"/><path d="m351.677 199.887c0-12.976-10.557-23.532-23.532-23.532s-23.532 10.557-23.532 23.532 10.557 23.532 23.532 23.532 23.532-10.556 23.532-23.532zm-32.064 0c0-4.705 3.828-8.532 8.532-8.532s8.532 3.828 8.532 8.532-3.828 8.532-8.532 8.532-8.532-3.827-8.532-8.532z"/><path d="m328.145 159.291c12.976 0 23.532-10.557 23.532-23.532 0-12.976-10.557-23.533-23.532-23.533s-23.532 10.557-23.532 23.533c0 12.975 10.556 23.532 23.532 23.532zm0-32.065c4.705 0 8.532 3.828 8.532 8.533s-3.828 8.532-8.532 8.532-8.532-3.828-8.532-8.532c0-4.706 3.827-8.533 8.532-8.533z"/><path d="m376.242 191.355h16.033c4.142 0 7.5-3.358 7.5-7.5s-3.358-7.5-7.5-7.5h-16.033c-4.142 0-7.5 3.358-7.5 7.5s3.358 7.5 7.5 7.5z"/><path d="m376.242 223.419h16.033c4.142 0 7.5-3.358 7.5-7.5s-3.358-7.5-7.5-7.5h-16.033c-4.142 0-7.5 3.358-7.5 7.5s3.358 7.5 7.5 7.5z"/><path d="m392.274 256.516h-72.146c-4.142 0-7.5 3.358-7.5 7.5s3.358 7.5 7.5 7.5h72.146c4.142 0 7.5-3.358 7.5-7.5s-3.357-7.5-7.5-7.5z"/><path d="m288.064 256.516h-32.064c-4.142 0-7.5 3.358-7.5 7.5s3.358 7.5 7.5 7.5h32.064c4.142 0 7.5-3.358 7.5-7.5s-3.357-7.5-7.5-7.5z"/><path d="m223.936 320.645h-32.064c-4.142 0-7.5 3.358-7.5 7.5s3.358 7.5 7.5 7.5h32.064c4.142 0 7.5-3.358 7.5-7.5s-3.358-7.5-7.5-7.5z"/><path d="m159.807 288.581h-32.065c-4.142 0-7.5 3.358-7.5 7.5s3.358 7.5 7.5 7.5h32.065c4.142 0 7.5-3.358 7.5-7.5s-3.358-7.5-7.5-7.5z"/><path d="m392.274 288.581h-72.146c-4.142 0-7.5 3.358-7.5 7.5s3.358 7.5 7.5 7.5h72.146c4.142 0 7.5-3.358 7.5-7.5s-3.357-7.5-7.5-7.5z"/><path d="m392.274 320.645h-72.146c-4.142 0-7.5 3.358-7.5 7.5s3.358 7.5 7.5 7.5h72.146c4.142 0 7.5-3.358 7.5-7.5s-3.357-7.5-7.5-7.5z"/><path d="m392.274 352.709h-72.146c-4.142 0-7.5 3.358-7.5 7.5s3.358 7.5 7.5 7.5h72.146c4.142 0 7.5-3.358 7.5-7.5s-3.357-7.5-7.5-7.5z"/><path d="m392.274 384.774h-72.146c-4.142 0-7.5 3.358-7.5 7.5s3.358 7.5 7.5 7.5h72.146c4.142 0 7.5-3.358 7.5-7.5s-3.357-7.5-7.5-7.5z"/><path d="m328.145 416.839h-8.016c-4.142 0-7.5 3.358-7.5 7.5s3.358 7.5 7.5 7.5h8.016c4.142 0 7.5-3.358 7.5-7.5s-3.358-7.5-7.5-7.5z"/><path d="m376.242 159.291h16.033c4.142 0 7.5-3.358 7.5-7.5s-3.358-7.5-7.5-7.5h-16.033c-4.142 0-7.5 3.358-7.5 7.5s3.358 7.5 7.5 7.5z"/><path d="m376.242 127.226h16.033c4.142 0 7.5-3.358 7.5-7.5s-3.358-7.5-7.5-7.5h-16.033c-4.142 0-7.5 3.358-7.5 7.5s3.358 7.5 7.5 7.5z"/><path d="m376.242 95.161h16.033c4.142 0 7.5-3.358 7.5-7.5s-3.358-7.5-7.5-7.5h-16.033c-4.142 0-7.5 3.358-7.5 7.5s3.358 7.5 7.5 7.5z"/><path d="m376.242 63.097h16.033c4.142 0 7.5-3.358 7.5-7.5s-3.358-7.5-7.5-7.5h-16.033c-4.142 0-7.5 3.358-7.5 7.5s3.358 7.5 7.5 7.5z"/><path d="m151.791 320.645h-16.032c-8.556 0-15.517 6.96-15.517 15.516v8.016c0 4.142 3.358 7.5 7.5 7.5s7.5-3.358 7.5-7.5v-8.016c0-.285.232-.516.517-.516h16.032c.285 0 .516.231.516.516v96.194c0 .285-.231.516-.516.516h-16.032c-.285 0-.517-.231-.517-.516v-56.113c0-4.142-3.358-7.5-7.5-7.5s-7.5 3.358-7.5 7.5v56.113c0 8.556 6.961 15.516 15.517 15.516h16.032c8.556 0 15.516-6.96 15.516-15.516v-96.194c0-8.556-6.961-15.516-15.516-15.516z"/><path d="m215.919 352.709h-16.032c-8.556 0-15.516 6.96-15.516 15.516v64.129c0 8.556 6.96 15.516 15.516 15.516h16.032c8.556 0 15.516-6.96 15.516-15.516v-64.129c.001-8.555-6.96-15.516-15.516-15.516zm.517 79.646c0 .285-.231.516-.516.516h-16.032c-.285 0-.516-.231-.516-.516v-64.129c0-.285.231-.516.516-.516h16.032c.285 0 .516.231.516.516z"/><path d="m280.048 288.581h-16.032c-8.556 0-15.516 6.96-15.516 15.516v128.258c0 8.556 6.96 15.516 15.516 15.516h16.032c8.556 0 15.516-6.96 15.516-15.516v-128.258c0-8.556-6.96-15.516-15.516-15.516zm.516 143.774c0 .285-.231.516-.516.516h-16.032c-.285 0-.516-.231-.516-.516v-128.258c0-.285.231-.516.516-.516h16.032c.285 0 .516.231.516.516z"/><path d="m199.935 223.428c8.43 0 17.003-1.228 25.476-3.807 46.242-14.074 72.413-63.145 58.34-109.387-5.664-18.61-16.998-34.419-32.777-45.718-3.367-2.412-8.052-1.637-10.464 1.731s-1.637 8.053 1.731 10.464c13.073 9.362 22.465 22.464 27.16 37.89 1.381 4.537 2.279 9.106 2.753 13.657h-64.765v-64.781c2.88.297 5.744.76 8.575 1.406 4.036.918 8.058-1.607 8.979-5.646.92-4.039-1.607-8.059-5.646-8.979-14.796-3.371-30.333-2.805-44.93 1.637-46.243 14.074-72.414 63.145-58.34 109.387 11.492 37.769 46.328 62.149 83.908 62.146zm21.108-18.157c-4.537 1.381-9.106 2.279-13.656 2.753v-54.159l38.29 38.29c-7.085 5.768-15.367 10.296-24.634 13.116zm35.236-23.728-38.285-38.285h54.165c-1.481 14.085-7.068 27.399-15.88 38.285zm-120.505-79.979c9.134-17.125 24.389-29.668 42.957-35.319 4.47-1.361 9.046-2.28 13.656-2.762v72.272.005 72.27c-28.174-2.962-53.26-22.355-62.013-51.116-5.651-18.567-3.733-38.225 5.4-55.35z"/></g></svg>