<svg id="Capa_1" enable-background="new 0 0 512 512" height="512" viewBox="0 0 512 512" width="512" xmlns="http://www.w3.org/2000/svg"><g><path d="m396.892 268.996-77.279-49.177v-128.252c0-15.849-5.358-31.466-15.089-43.976l-29.949-38.506c-4.491-5.774-11.261-9.085-18.575-9.085s-14.085 3.311-18.575 9.085l-29.95 38.506c-9.729 12.51-15.088 28.128-15.088 43.976v128.252l-77.279 49.177c-6.825 4.343-10.899 11.764-10.899 19.853v23.264c0 2.55 1.295 4.925 3.439 6.306 1.23.792 2.642 1.194 4.061 1.194 1.055 0 2.113-.222 3.103-.672l77.574-35.261v20.417c0 12.976 10.557 23.532 23.532 23.532h.516v8.532c0 12.976 10.557 23.532 23.532 23.532h32.064c12.976 0 23.532-10.556 23.532-23.532v-8.532h.516c12.976 0 23.532-10.556 23.532-23.532v-20.417l77.574 35.261c.99.45 2.048.672 3.103.672 1.419 0 2.831-.402 4.061-1.194 2.144-1.381 3.439-3.756 3.439-6.306v-23.264c.004-8.089-4.071-15.51-10.895-19.853zm-177.577-212.196 29.95-38.506c1.628-2.094 4.083-3.294 6.735-3.294s5.106 1.2 6.735 3.294l29.949 38.506c7.692 9.89 11.929 22.237 11.929 34.767v36.691h-97.226v-36.691c0-12.53 4.237-24.877 11.928-34.767zm-100.106 243.665v-11.616c0-2.933 1.478-5.624 3.952-7.198l69.226-44.053v29.605zm161.355 35.696c0 4.705-3.828 8.532-8.532 8.532h-32.064c-4.705 0-8.532-3.828-8.532-8.532v-8.532h49.129v8.532zm15.517-23.532h-80.161c-4.705 0-8.532-3.828-8.532-8.532v-8.532h56.629c4.142 0 7.5-3.358 7.5-7.5s-3.358-7.5-7.5-7.5h-56.629v-137.307h97.226v137.306h-8.532c-4.142 0-7.5 3.358-7.5 7.5s3.358 7.5 7.5 7.5h8.532v8.532c-.001 4.705-3.829 8.533-8.533 8.533zm96.71-12.164-73.178-33.263v-29.605l69.226 44.053c2.474 1.575 3.952 4.266 3.952 7.198z"/><path d="m256 111.194c12.976 0 23.532-10.557 23.532-23.532s-10.556-23.533-23.532-23.533-23.532 10.557-23.532 23.532 10.556 23.533 23.532 23.533zm0-32.065c4.705 0 8.532 3.828 8.532 8.532s-3.828 8.532-8.532 8.532-8.532-3.828-8.532-8.532 3.827-8.532 8.532-8.532z"/><path d="m296.081 376.758c-4.142 0-7.5 3.358-7.5 7.5v32.065c0 34.062-22.154 64.495-32.581 76.929-10.429-12.437-32.581-42.867-32.581-76.929v-32.065c0-4.142-3.358-7.5-7.5-7.5s-7.5 3.358-7.5 7.5v32.065c0 50.621 40.551 91.754 42.277 93.48 1.464 1.464 3.384 2.197 5.303 2.197s3.839-.732 5.303-2.197c1.726-1.726 42.277-42.859 42.277-93.48v-32.065c.002-4.142-3.356-7.5-7.498-7.5z"/><path d="m263.5 424.339v-40.081c0-4.142-3.358-7.5-7.5-7.5s-7.5 3.358-7.5 7.5v40.081c0 4.142 3.358 7.5 7.5 7.5s7.5-3.358 7.5-7.5z"/><path d="m109.934 91.822 18.325-27.487v151.584c0 4.142 3.358 7.5 7.5 7.5s7.5-3.358 7.5-7.5v-151.584l18.324 27.486c2.298 3.447 6.956 4.378 10.4 2.08 3.447-2.298 4.378-6.954 2.08-10.401l-32.064-48.097c-1.391-2.087-3.732-3.34-6.24-3.34s-4.849 1.253-6.24 3.34l-32.066 48.098c-2.298 3.446-1.367 8.103 2.08 10.401 1.279.852 2.724 1.26 4.153 1.26 2.424 0 4.803-1.173 6.248-3.34z"/><path d="m414.547 83.501-32.065-48.097c-1.391-2.086-3.732-3.34-6.24-3.34s-4.85 1.253-6.24 3.34l-32.064 48.097c-2.298 3.446-1.367 8.103 2.08 10.401 3.447 2.297 8.103 1.366 10.4-2.08l18.324-27.486v151.584c0 4.142 3.358 7.5 7.5 7.5s7.5-3.358 7.5-7.5v-151.585l18.325 27.487c1.445 2.168 3.823 3.341 6.247 3.34 1.43 0 2.875-.408 4.153-1.26 3.447-2.298 4.378-6.954 2.08-10.401z"/></g></svg>