<svg id="Capa_1" enable-background="new 0 0 512.002 512.002" height="512" viewBox="0 0 512.002 512.002" width="512" xmlns="http://www.w3.org/2000/svg"><g><path d="m511.931 264.945-1.512-15.981c-.807-8.523-8.393-14.794-16.92-13.995l-13.21 1.25c2.52-5.082 3.707-10.899 3.135-16.949l-7.559-79.906c-.794-8.398-4.812-15.983-11.312-21.359s-14.7-7.899-23.102-7.105l-79.905 7.559c-8.397.794-15.983 4.811-21.359 11.311s-7.9 14.704-7.105 23.101c.39 4.124 4.043 7.154 8.173 6.76 4.124-.39 7.15-4.049 6.76-8.173-.417-4.409.908-8.716 3.73-12.128 2.823-3.412 6.805-5.521 11.213-5.938l79.906-7.559c9.089-.864 17.205 5.842 18.066 14.944l7.559 79.906c.861 9.099-5.841 17.202-14.939 18.066l-79.91 7.559c-9.093.862-17.206-5.843-18.066-14.944l-4.508-47.655c-.39-4.124-4.055-7.151-8.173-6.76-4.124.39-7.151 4.049-6.761 8.173l4.508 47.655c.56 5.923 2.73 11.438 6.238 16.063l-186.213 17.615c2.52-5.082 3.707-10.899 3.135-16.949l-7.559-79.906c-.794-8.397-4.811-15.983-11.311-21.359-6.499-5.376-14.702-7.9-23.102-7.105l-79.905 7.559c-8.397.794-15.983 4.811-21.359 11.311s-7.9 14.704-7.105 23.101l7.559 79.906c.573 6.05 2.829 11.542 6.257 16.061l-13.21 1.25c-8.523.806-14.801 8.396-13.995 16.919l1.512 15.981c.391 4.129 2.366 7.858 5.562 10.502 2.81 2.324 6.268 3.564 9.868 3.564.495 0 .991-.023 1.49-.07l22.982-2.174c4.124-.39 7.15-4.049 6.76-8.173-.391-4.124-4.045-7.151-8.173-6.76l-22.982 2.174c-.284.025-.546-.186-.573-.474l-1.512-15.981c-.027-.289.186-.546.475-.573l479.434-45.352c.055-.004.217-.02.385.118.168.139.184.302.188.356l1.512 15.981c.027.289-.186.546-.475.574l-424.08 40.115c-4.124.39-7.15 4.049-6.76 8.173.391 4.124 4.048 7.152 8.173 6.76l167.315-15.827-53.395 80.093h-28.091c-4.142 0-7.5 3.358-7.5 7.5s3.358 7.5 7.5 7.5h192.63c4.142 0 7.5-3.358 7.5-7.5s-3.358-7.5-7.5-7.5h-28.091l-55.154-82.732 228.866-21.649c4.128-.39 7.858-2.365 10.501-5.561 2.644-3.2 3.885-7.234 3.494-11.363zm-378.006 4.038-79.907 7.559c-9.091.863-17.205-5.843-18.066-14.944l-7.559-79.906c-.417-4.409.908-8.716 3.73-12.128 2.823-3.412 6.805-5.521 11.213-5.938l79.906-7.559c.532-.051 1.063-.075 1.591-.075 3.845 0 7.537 1.324 10.537 3.805 3.413 2.823 5.521 6.805 5.938 11.213l7.559 79.906c.861 9.101-5.842 17.205-14.942 18.067zm172.272 117.263h-100.393l50.196-75.295z"/><path d="m384.274 195.838c.236 0 .475-.011.715-.034l47.943-4.535c4.124-.39 7.151-4.049 6.761-8.173-.391-4.124-4.044-7.156-8.173-6.76l-47.943 4.535c-4.124.39-7.151 4.049-6.761 8.173.367 3.883 3.634 6.794 7.458 6.794z"/><path d="m111.896 206.57-16.505 1.561-1.561-16.505c-.391-4.124-4.059-7.155-8.173-6.76-4.124.39-7.151 4.049-6.761 8.173l1.561 16.505-16.505 1.561c-4.124.39-7.151 4.049-6.761 8.173.368 3.884 3.634 6.794 7.458 6.794.236 0 .475-.011.715-.034l16.505-1.561 1.561 16.505c.368 3.884 3.634 6.794 7.458 6.794.236 0 .475-.011.715-.034 4.124-.39 7.151-4.049 6.761-8.173l-1.561-16.505 16.505-1.561c4.124-.39 7.151-4.049 6.761-8.173-.39-4.123-4.05-7.153-8.173-6.76z"/></g></svg>