<svg fill='white' id="Capa_1" enable-background="new 0 0 512 512" height="512" viewBox="0 0 512 512" width="512" xmlns="http://www.w3.org/2000/svg"><g><path d="m488.468 244.492h-40.597v-8.532c0-74.857-60.901-135.758-135.758-135.758h-29.003l11.918-29.795c.924-2.311.643-4.93-.753-6.99-1.395-2.061-3.722-3.295-6.21-3.295h-56.113c-3.515 0-6.559 2.441-7.321 5.873l-14.727 66.272h-10.016c-57.177 0-103.694 46.517-103.694 103.693v8.532h-17.065v-8.532c0-30.297 11.268-59.272 31.728-81.586 20.335-22.177 47.962-35.906 77.793-38.657 4.125-.38 7.16-4.032 6.78-8.157s-4.033-7.155-8.157-6.78c-33.549 3.093-64.614 18.526-87.472 43.456-23.003 25.088-35.672 57.663-35.672 91.723v8.532h-40.597c-12.975.001-23.532 10.557-23.532 23.533v112.226c0 12.976 10.557 23.532 23.532 23.532h47.259l-5.516 33.097h-17.694c-4.142 0-7.5 3.358-7.5 7.5s3.358 7.5 7.5 7.5h112.226c4.142 0 7.5-3.358 7.5-7.5s-3.358-7.5-7.5-7.5h-17.695l-5.517-33.097h47.26c12.976 0 23.532-10.557 23.532-23.532v-112.226c0-12.976-10.557-23.533-23.532-23.533h-40.597v-8.532c0-31.225 25.404-56.629 56.629-56.629h32.535l-7.825 39.126c-.693 3.467 1.129 6.947 4.373 8.353.965.418 1.978.619 2.979.619 2.364 0 4.662-1.12 6.106-3.141l55.015-77.021h19.043c48.906 0 88.694 39.788 88.694 88.693v8.532h-17.065v-8.532c0-39.496-32.133-71.629-71.629-71.629h-3.536c-4.142 0-7.5 3.358-7.5 7.5s3.358 7.5 7.5 7.5h3.536c31.225 0 56.629 25.404 56.629 56.629v8.532h-40.597c-12.976 0-23.532 10.557-23.532 23.533v112.226c0 12.976 10.557 23.532 23.532 23.532h47.26l-5.516 33.097h-17.695c-4.142 0-7.5 3.358-7.5 7.5s3.358 7.5 7.5 7.5h112.226c4.142 0 7.5-3.358 7.5-7.5s-3.358-7.5-7.5-7.5h-17.695l-5.516-33.097h47.259c12.976 0 23.532-10.557 23.532-23.532v-112.226c0-12.976-10.557-23.532-23.532-23.532zm-361.563 192.387h-46.423l5.516-33.097h35.39zm65.482-168.855v88.693h-120.758c-4.142 0-7.5 3.358-7.5 7.5s3.358 7.5 7.5 7.5h120.758v8.532c0 4.705-3.828 8.532-8.532 8.532h-160.323c-4.705 0-8.532-3.828-8.532-8.532v-8.532h24.564c4.142 0 7.5-3.358 7.5-7.5s-3.358-7.5-7.5-7.5h-24.564v-88.693c0-4.705 3.828-8.533 8.532-8.533h160.323c4.705.001 8.532 3.828 8.532 8.533zm7.5-103.693c-39.496 0-71.629 32.133-71.629 71.629v8.532h-17.065v-8.532c0-48.906 39.788-88.693 88.694-88.693h38.948l-3.413 17.064zm55.451-23.094c.44-2.203-.13-4.488-1.554-6.226-1.425-1.738-3.553-2.745-5.8-2.745h-22.715l12.699-57.145h39.019l-11.918 29.795c-.924 2.311-.643 4.93.753 6.99 1.395 2.061 3.722 3.295 6.21 3.295h25.507l-51.38 71.932zm56.775-8.971h-8.329l12.142-16.998c64.829 2.021 116.946 55.382 116.946 120.692v8.532h-17.064v-8.532c-.001-57.177-46.518-103.694-103.695-103.694zm16.032 127.226h160.323c4.705 0 8.532 3.828 8.532 8.533v88.693h-177.387v-88.693c0-4.706 3.827-8.533 8.532-8.533zm103.373 177.387h-46.422l5.516-33.097h35.39zm56.95-48.097h-160.323c-4.705 0-8.532-3.828-8.532-8.532v-8.532h177.387v8.532c0 4.705-3.828 8.532-8.532 8.532z"/><path d="m167.823 339.653c4.142 0 7.5-3.358 7.5-7.5v-48.097c0-4.142-3.358-7.5-7.5-7.5s-7.5 3.358-7.5 7.5v48.097c0 4.142 3.358 7.5 7.5 7.5z"/><path d="m128.258 300.089v32.064c0 4.142 3.358 7.5 7.5 7.5s7.5-3.358 7.5-7.5v-32.064c0-4.142-3.358-7.5-7.5-7.5s-7.5 3.358-7.5 7.5z"/><path d="m103.693 308.621c-4.142 0-7.5 3.358-7.5 7.5v16.032c0 4.142 3.358 7.5 7.5 7.5s7.5-3.358 7.5-7.5v-16.032c0-4.142-3.358-7.5-7.5-7.5z"/><path d="m71.629 284.573c-4.142 0-7.5 3.358-7.5 7.5v40.081c0 4.142 3.358 7.5 7.5 7.5s7.5-3.358 7.5-7.5v-40.081c0-4.142-3.358-7.5-7.5-7.5z"/><path d="m39.564 308.621c-4.142 0-7.5 3.358-7.5 7.5v16.032c0 4.142 3.358 7.5 7.5 7.5s7.5-3.358 7.5-7.5v-16.032c0-4.142-3.357-7.5-7.5-7.5z"/><path d="m344.183 339.655c1.127 0 2.271-.255 3.348-.793l58.961-29.481c.199-.099.438-.061.596.097l14.294 14.294c6.049 6.05 15.893 6.05 21.943 0l21.609-21.609v5.942c0 4.142 3.358 7.5 7.5 7.5s7.5-3.358 7.5-7.5v-24.046c0-.248-.013-.496-.037-.744-.01-.106-.031-.21-.045-.315-.02-.137-.036-.274-.063-.411-.024-.122-.058-.24-.088-.36-.029-.117-.055-.235-.09-.351-.036-.118-.08-.231-.121-.347s-.079-.232-.127-.346c-.045-.108-.098-.212-.147-.317-.055-.116-.106-.233-.167-.347-.055-.103-.118-.2-.177-.3-.066-.11-.128-.222-.2-.329-.075-.112-.158-.217-.239-.324-.066-.088-.127-.179-.198-.264-.314-.383-.664-.733-1.047-1.047-.088-.072-.18-.134-.27-.202-.106-.079-.209-.161-.319-.234-.109-.073-.223-.137-.335-.204-.098-.058-.193-.119-.293-.173-.116-.062-.236-.115-.354-.171-.103-.048-.204-.1-.309-.144-.117-.048-.236-.087-.354-.129-.113-.041-.224-.084-.339-.119-.118-.036-.239-.062-.358-.092-.118-.029-.234-.062-.354-.086-.138-.028-.278-.044-.417-.064-.103-.015-.204-.034-.308-.045-.247-.024-.496-.037-.744-.037h-24.046c-4.142 0-7.5 3.358-7.5 7.5s3.358 7.5 7.5 7.5h5.942l-21.609 21.609c-.038.037-.151.151-.365.151s-.328-.114-.365-.151l-14.294-14.294c-4.729-4.73-11.928-5.898-17.911-2.907l-58.961 29.481c-3.705 1.852-5.207 6.357-3.354 10.062 1.312 2.628 3.961 4.147 6.712 4.147z"/></g></svg>