<svg id="Layer_1" enable-background="new 0 0 512 512" height="512" viewBox="0 0 512 512" width="512" xmlns="http://www.w3.org/2000/svg"><g><path d="m393.529 512h-362.624c-2.276 0-4.121-1.845-4.121-4.121v-503.758c.001-2.276 1.846-4.121 4.121-4.121h362.624c2.276 0 4.121 1.845 4.121 4.121v503.759c0 2.275-1.845 4.12-4.121 4.12z" fill="#f9f7f8"/><path d="m393.529 0h-30.905c2.276 0 4.121 1.845 4.121 4.121v503.759c0 2.276-1.845 4.121-4.121 4.121h30.905c2.276 0 4.121-1.845 4.121-4.121v-503.759c0-2.276-1.845-4.121-4.121-4.121z" fill="#efedef"/><path d="m393.529 512h-362.624c-2.276 0-4.121-1.845-4.121-4.121v-53.569h370.866v53.569c0 2.276-1.845 4.121-4.121 4.121z" fill="#75cdd5"/><path d="m465.424 512h-222.083c-10.93 0-19.791-8.861-19.791-19.791v-294.196c0-10.93 8.861-19.791 19.791-19.791h222.083c10.93 0 19.791 8.861 19.791 19.791v294.196c0 10.93-8.861 19.791-19.791 19.791z" fill="#cbc4cc"/><path d="m465.424 178.221h-30.905c10.93 0 19.791 8.861 19.791 19.791v294.196c0 10.93-8.861 19.791-19.791 19.791h30.905c10.93 0 19.791-8.861 19.791-19.791v-294.195c0-10.931-8.861-19.792-19.791-19.792z" fill="#b5adb6"/><path d="m277.119 282.207v-65.932c0-3.983 3.229-7.211 7.211-7.211h140.105c3.983 0 7.211 3.229 7.211 7.211v65.932c0 3.983-3.229 7.211-7.211 7.211h-140.105c-3.983.001-7.211-3.228-7.211-7.211z" fill="#d4f2f6"/><path d="m424.435 209.065h-30.905c3.983 0 7.211 3.228 7.211 7.211v65.932c0 3.983-3.229 7.211-7.211 7.211h30.905c3.983 0 7.211-3.229 7.211-7.211v-65.932c0-3.983-3.229-7.211-7.211-7.211z" fill="#a6e7f0"/><path d="m424.435 201.564h-140.105c-8.112 0-14.711 6.6-14.711 14.711v65.932c0 8.112 6.6 14.711 14.711 14.711h140.104c8.112 0 14.711-6.6 14.711-14.711v-65.932c.001-8.111-6.599-14.711-14.71-14.711zm-.289 80.355h-139.527v-65.354h139.527z" fill="#b5adb6"/><path d="m324.585 382.105h-35.374c-6.678 0-12.092-5.414-12.092-12.092v-35.374c0-6.678 5.414-12.092 12.092-12.092h35.374c6.678 0 12.092 5.414 12.092 12.092v35.374c0 6.678-5.414 12.092-12.092 12.092z" fill="#75cdd5"/><path d="m324.585 322.547h-30.905c6.678 0 12.092 5.414 12.092 12.092v35.374c0 6.678-5.414 12.092-12.092 12.092h30.905c6.678 0 12.092-5.414 12.092-12.092v-35.374c0-6.678-5.414-12.092-12.092-12.092z" fill="#2abcc8"/><path d="m419.554 382.105h-35.374c-6.678 0-12.092-5.414-12.092-12.092v-35.374c0-6.678 5.414-12.092 12.092-12.092h35.374c6.678 0 12.092 5.414 12.092 12.092v35.374c0 6.678-5.414 12.092-12.092 12.092z" fill="#75cdd5"/><path d="m419.554 322.547h-30.905c6.678 0 12.092 5.414 12.092 12.092v35.374c0 6.678-5.414 12.092-12.092 12.092h30.905c6.678 0 12.092-5.414 12.092-12.092v-35.374c0-6.678-5.414-12.092-12.092-12.092z" fill="#2abcc8"/><path d="m324.585 467.575h-35.374c-6.678 0-12.092-5.414-12.092-12.092v-35.374c0-6.678 5.414-12.092 12.092-12.092h35.374c6.678 0 12.092 5.414 12.092 12.092v35.374c0 6.678-5.414 12.092-12.092 12.092z" fill="#fd8087"/><path d="m324.585 408.017h-30.905c6.678 0 12.092 5.414 12.092 12.092v35.374c0 6.678-5.414 12.092-12.092 12.092h30.905c6.678 0 12.092-5.414 12.092-12.092v-35.374c0-6.678-5.414-12.092-12.092-12.092z" fill="#fe646f"/><path d="m419.554 467.575h-35.374c-6.678 0-12.092-5.414-12.092-12.092v-35.374c0-6.678 5.414-12.092 12.092-12.092h35.374c6.678 0 12.092 5.414 12.092 12.092v35.374c0 6.678-5.414 12.092-12.092 12.092z" fill="#fead8a"/><path d="m419.554 408.017h-30.905c6.678 0 12.092 5.414 12.092 12.092v35.374c0 6.678-5.414 12.092-12.092 12.092h30.905c6.678 0 12.092-5.414 12.092-12.092v-35.374c0-6.678-5.414-12.092-12.092-12.092z" fill="#fd9468"/><g><g fill="#b5adb6"><path d="m78.372 65.878h101.817c4.142 0 7.5-3.358 7.5-7.5s-3.358-7.5-7.5-7.5h-101.817c-4.142 0-7.5 3.358-7.5 7.5s3.357 7.5 7.5 7.5z"/><path d="m78.372 102.575h273.432c4.142 0 7.5-3.358 7.5-7.5s-3.358-7.5-7.5-7.5h-273.432c-4.142 0-7.5 3.358-7.5 7.5s3.357 7.5 7.5 7.5z"/><path d="m351.803 123.77h-273.431c-4.142 0-7.5 3.358-7.5 7.5s3.358 7.5 7.5 7.5h273.432c4.142 0 7.5-3.358 7.5-7.5s-3.359-7.5-7.501-7.5z"/></g><path d="m148.609 241.319c-3.818-1.603-8.214.194-9.818 4.013l-41.501 98.889c-1.603 3.819.194 8.215 4.013 9.818.948.398 1.932.586 2.899.586 2.931 0 5.714-1.729 6.919-4.6l41.501-98.888c1.603-3.819-.194-8.215-4.013-9.818z" fill="#fe99a0"/><path d="m122.098 264.935c0-15.885-11.591-28.809-25.837-28.809s-25.837 12.924-25.837 28.809 11.591 28.809 25.837 28.809 25.837-12.924 25.837-28.809zm-25.837 13.809c-5.976 0-10.837-6.194-10.837-13.809s4.862-13.809 10.837-13.809 10.837 6.195 10.837 13.809-4.862 13.809-10.837 13.809z" fill="#fe99a0"/><path d="m152.31 303.737c-14.247 0-25.837 12.924-25.837 28.809s11.591 28.809 25.837 28.809 25.837-12.924 25.837-28.809-11.59-28.809-25.837-28.809zm0 42.618c-5.976 0-10.837-6.195-10.837-13.809s4.862-13.809 10.837-13.809 10.837 6.195 10.837 13.809-4.861 13.809-10.837 13.809z" fill="#fe99a0"/></g></g></svg>