<svg id="Layer_1" enable-background="new 0 0 512 512" height="512" viewBox="0 0 512 512" width="512" xmlns="http://www.w3.org/2000/svg"><g><path d="m512 302.489c.001 116.05-93.431 209.512-209.443 209.511-115.665-.001-209.44-93.798-209.44-209.51 0-2.028.027-4.048.088-6.061.05-1.668 1.433-2.986 3.101-2.986h203.163c1.706 0 3.09-1.384 3.09-3.091v-194.24c0-1.725 1.408-3.134 3.132-3.109 114.23 1.675 206.308 94.828 206.309 209.486z" fill="#75cdd5"/><path d="m305.691 93.003c-1.433-.021-2.635.955-3.004 2.274 100.959 14.998 178.416 102.055 178.417 207.212.001 110.838-85.229 201.064-193.956 208.945 5.089.37 10.226.566 15.41.566 116.011.001 209.443-93.461 209.442-209.511-.001-114.658-92.079-207.811-206.309-209.486z" fill="#2abcc8"/><path d="m266.586 3.099v249.344c0 1.707-1.383 3.091-3.09 3.091h-260.399c-1.768 0-3.189-1.483-3.093-3.249 7.598-139.596 122.397-250.67 263.465-252.285 1.716-.019 3.117 1.382 3.117 3.099z" fill="#fe99a0"/><path d="m263.469 0c-9.486.108-18.848.728-28.072 1.802.183.396.292.833.292 1.296v249.344c0 1.707-1.383 3.091-3.09 3.091h30.896c1.706 0 3.09-1.384 3.09-3.091v-249.344c.001-1.716-1.4-3.117-3.116-3.098z" fill="#fd8087"/><g fill="#f9f7f8"><path d="m407.201 255.836-2.874-1.014c-2.35-.828-4.498-1.587-6.517-2.315v-47.535c7.046 1.2 11.861 4.37 13.693 5.763 3.298 2.505 8.003 1.865 10.51-1.433 2.506-3.298 1.865-8.003-1.433-10.51-2.94-2.234-11.06-7.581-22.771-8.964v-8.05c0-4.142-3.358-7.5-7.5-7.5s-7.5 3.358-7.5 7.5v8.62c-1.794.342-3.632.779-5.518 1.347-12.789 3.854-22.294 14.855-24.805 28.709-2.242 12.369 1.764 24.167 10.455 30.793 6.969 5.312 13.014 8.626 19.868 11.537v58.524c-8.595-.367-13.886-1.985-23.118-8.027-3.465-2.269-8.115-1.297-10.382 2.168-2.269 3.466-1.297 8.114 2.168 10.382 12.165 7.961 20.299 10.042 31.332 10.473v9.2c0 4.142 3.358 7.5 7.5 7.5s7.5-3.358 7.5-7.5v-9.736c20.896-3.424 33.09-20.354 35.747-36.149 3.324-19.76-7.021-36.946-26.355-43.783zm-35.164-16.518c-4.186-3.19-6.021-9.394-4.79-16.188 1.176-6.489 5.57-14.369 14.374-17.022.4-.121.795-.229 1.189-.334v40.464c-3.574-1.863-6.987-4.034-10.773-6.92zm46.728 57.814c-1.638 9.739-8.773 20.133-20.955 23.298v-52c.509.18 1.008.356 1.53.54l2.859 1.009c18.508 6.543 17.359 22.438 16.566 27.153z"/><g><path d="m151.715 123.979c-.026-.069-.053-.138-.081-.206-1.352-3.287-4.52-5.409-8.073-5.409h-.01c-3.557.004-6.724 2.134-8.07 5.426-.023.057-.045.113-.067.17l-20.368 53.497c-1.474 3.871.47 8.204 4.341 9.678 3.871 1.473 8.204-.47 9.678-4.341l3.233-8.492h22.371l3.196 8.471c1.133 3.004 3.987 4.854 7.019 4.854.879 0 1.774-.156 2.646-.485 3.875-1.462 5.832-5.789 4.37-9.665zm-13.706 35.323 5.526-14.513 5.475 14.513z"/><path d="m229.371 175.811-17.398-24.74 14.71-20.888c2.385-3.387 1.573-8.065-1.813-10.45-3.386-2.386-8.065-1.573-10.45 1.813l-11.613 16.49-11.594-16.486c-2.382-3.387-7.061-4.201-10.449-1.82-3.388 2.383-4.203 7.061-1.82 10.449l14.688 20.886-17.424 24.742c-2.385 3.387-1.573 8.065 1.813 10.45 1.312.925 2.82 1.369 4.312 1.369 2.357 0 4.678-1.108 6.138-3.182l14.327-20.344 14.304 20.34c1.46 2.076 3.782 3.186 6.141 3.186 1.491 0 2.996-.443 4.308-1.366 3.388-2.383 4.203-7.061 1.82-10.449z"/><path d="m107.943 118.364h-29.956c-4.142 0-7.5 3.358-7.5 7.5s3.358 7.5 7.5 7.5h7.417v46.761c0 4.142 3.358 7.5 7.5 7.5s7.5-3.358 7.5-7.5v-46.761h7.539c4.142 0 7.5-3.358 7.5-7.5s-3.358-7.5-7.5-7.5z"/></g><g><path d="m215.343 360.661h70.616c4.142 0 7.5-3.358 7.5-7.5s-3.358-7.5-7.5-7.5h-70.616c-4.142 0-7.5 3.358-7.5 7.5s3.358 7.5 7.5 7.5z"/><path d="m215.343 397.359h189.642c4.142 0 7.5-3.358 7.5-7.5s-3.358-7.5-7.5-7.5h-189.642c-4.142 0-7.5 3.358-7.5 7.5s3.358 7.5 7.5 7.5z"/><path d="m404.985 418.555h-189.642c-4.142 0-7.5 3.358-7.5 7.5s3.358 7.5 7.5 7.5h189.642c4.142 0 7.5-3.358 7.5-7.5s-3.358-7.5-7.5-7.5z"/></g></g></g></svg>