<svg id="Layer_1" enable-background="new 0 0 512 512" height="512" viewBox="0 0 512 512" width="512" xmlns="http://www.w3.org/2000/svg"><g><path d="m507.879 512h-362.623c-2.276 0-4.121-1.845-4.121-4.121v-503.758c0-2.276 1.845-4.121 4.121-4.121h362.624c2.275 0 4.12 1.845 4.12 4.121v503.759c0 2.275-1.845 4.12-4.121 4.12z" fill="#f9f7f8"/><path d="m507.879 0h-30.905c2.276 0 4.121 1.845 4.121 4.121v503.759c0 2.276-1.845 4.121-4.121 4.121h30.905c2.276 0 4.121-1.845 4.121-4.121v-503.759c0-2.276-1.845-4.121-4.121-4.121z" fill="#efedef"/><path d="m507.879 512h-362.623c-2.276 0-4.121-1.845-4.121-4.121v-53.569h370.865v53.569c0 2.276-1.845 4.121-4.121 4.121z" fill="#75cdd5"/><path d="m481.095 454.31v53.569c0 2.276-1.845 4.121-4.121 4.121h30.905c2.276 0 4.121-1.845 4.121-4.121v-53.569z" fill="#2abcc8"/><path d="m428.555 512h-424.434c-2.276 0-4.121-1.845-4.121-4.121v-234.881c0-2.276 1.845-4.121 4.121-4.121h424.435c2.276 0 4.121 1.845 4.121 4.121v234.881c-.001 2.276-1.846 4.121-4.122 4.121z" fill="#c1e9af"/><path d="m428.555 268.877h-30.905c2.276 0 4.121 1.845 4.121 4.121v234.881c0 2.276-1.845 4.121-4.121 4.121h30.905c2.276 0 4.121-1.845 4.121-4.121v-234.881c0-2.276-1.845-4.121-4.121-4.121z" fill="#ade194"/><path d="m401.771 338.57v103.738c0 3.686-3.202 6.533-6.867 6.137-1.616-.175-3.279-.189-4.972-.027-11.269 1.079-20.43 10.069-21.692 21.319-.179 1.599-.202 3.173-.08 4.708.285 3.588-2.555 6.651-6.155 6.651h-291.334c-3.6 0-6.44-3.063-6.155-6.651.122-1.535.1-3.109-.08-4.708-1.262-11.25-10.423-20.24-21.692-21.319-1.693-.162-3.356-.148-4.972.027-3.665.396-6.867-2.451-6.867-6.137v-103.738c0-3.686 3.202-6.533 6.867-6.137 1.616.175 3.279.189 4.972.027 11.269-1.078 20.43-10.069 21.692-21.318.179-1.599.202-3.173.08-4.708-.285-3.588 2.555-6.651 6.155-6.651h291.335c3.6 0 6.44 3.062 6.155 6.651-.122 1.535-.1 3.109.08 4.708 1.262 11.25 10.423 20.24 21.692 21.318 1.693.162 3.356.148 4.972-.027 3.663-.396 6.866 2.451 6.866 6.137z" fill="#faf7f7"/><circle cx="216.338" cy="390.439" fill="#fae2c0" r="57.69"/><g><g fill="#cbc4cc"><path d="m196.728 88.627h50.9c4.142 0 7.5-3.357 7.5-7.5s-3.358-7.5-7.5-7.5h-50.9c-4.142 0-7.5 3.357-7.5 7.5s3.357 7.5 7.5 7.5z"/><path d="m196.728 125.324h136.694c4.142 0 7.5-3.357 7.5-7.5s-3.358-7.5-7.5-7.5h-136.694c-4.142 0-7.5 3.357-7.5 7.5s3.357 7.5 7.5 7.5z"/><path d="m196.728 161.519h136.694c4.142 0 7.5-3.357 7.5-7.5s-3.358-7.5-7.5-7.5h-136.694c-4.142 0-7.5 3.357-7.5 7.5s3.357 7.5 7.5 7.5z"/><path d="m196.728 197.713h136.694c4.142 0 7.5-3.357 7.5-7.5s-3.358-7.5-7.5-7.5h-136.694c-4.142 0-7.5 3.357-7.5 7.5s3.357 7.5 7.5 7.5z"/><path d="m453.723 218.907h-256.995c-4.142 0-7.5 3.357-7.5 7.5s3.358 7.5 7.5 7.5h256.995c4.142 0 7.5-3.357 7.5-7.5s-3.358-7.5-7.5-7.5z"/></g><path d="m392.181 181.006c.948.397 1.932.586 2.899.586 2.931 0 5.714-1.729 6.919-4.6l41.501-98.888c1.603-3.819-.194-8.215-4.013-9.818-3.821-1.603-8.214.195-9.818 4.014l-41.501 98.888c-1.603 3.819.194 8.214 4.013 9.818z" fill="#fe99a0"/><path d="m387.138 120.711c14.247 0 25.837-12.924 25.837-28.809 0-15.886-11.591-28.81-25.837-28.81s-25.837 12.924-25.837 28.81c0 15.885 11.591 28.809 25.837 28.809zm0-42.618c5.976 0 10.837 6.195 10.837 13.81s-4.862 13.809-10.837 13.809-10.837-6.194-10.837-13.809 4.862-13.81 10.837-13.81z" fill="#fe99a0"/><path d="m417.35 159.514c0 15.885 11.591 28.809 25.837 28.809s25.837-12.924 25.837-28.809c0-15.886-11.591-28.81-25.837-28.81s-25.837 12.924-25.837 28.81zm36.675 0c0 7.614-4.862 13.809-10.837 13.809s-10.837-6.194-10.837-13.809 4.862-13.81 10.837-13.81 10.837 6.195 10.837 13.81z" fill="#fe99a0"/></g></g></svg>