<svg id="Layer_1" enable-background="new 0 0 512 512" height="512" viewBox="0 0 512 512" width="512" xmlns="http://www.w3.org/2000/svg"><g><path d="m307.097 164.175h-170.396c-33.568 0-60.781-27.212-60.781-60.781 0-33.568 27.212-60.781 60.781-60.781h170.396c33.568 0 60.781 27.212 60.781 60.781 0 33.569-27.213 60.781-60.781 60.781z" fill="#75cdd5"/><path d="m307.097 42.614h-30.905c33.568 0 60.781 27.212 60.781 60.781 0 33.568-27.212 60.781-60.781 60.781h30.905c33.568 0 60.781-27.212 60.781-60.781 0-33.569-27.213-60.781-60.781-60.781z" fill="#2abcc8"/><g fill="#f9f7f8"><path d="m222.666 72.888c-.025-.068-.053-.137-.081-.205-1.362-3.312-4.556-5.452-8.137-5.452h-.007c-3.584.003-6.778 2.148-8.137 5.465-.023.058-.046.115-.068.174l-21.526 56.52c-1.475 3.87.469 8.203 4.34 9.678.878.335 1.78.493 2.668.493 3.021 0 5.87-1.84 7.01-4.833l3.521-9.246h24.233l3.482 9.226c1.462 3.875 5.79 5.831 9.665 4.368 3.875-1.462 5.831-5.789 4.368-9.665zm-14.704 37.593 6.459-16.959 6.4 16.959z"/><path d="m304.788 127.743-18.558-26.381 15.718-22.312c2.385-3.387 1.574-8.065-1.812-10.451-3.389-2.386-8.065-1.572-10.451 1.812l-12.623 17.918-12.602-17.914c-2.382-3.386-7.059-4.204-10.449-1.818-3.388 2.383-4.202 7.062-1.818 10.449l15.693 22.309-18.587 26.385c-2.385 3.387-1.573 8.065 1.812 10.451 1.313.925 2.82 1.369 4.312 1.369 2.357 0 4.678-1.108 6.139-3.182l15.491-21.99 15.467 21.986c1.46 2.075 3.781 3.186 6.141 3.186 1.49 0 2.996-.443 4.309-1.367 3.387-2.383 4.202-7.062 1.818-10.45z"/><path d="m176.804 67.23h-31.659c-4.143 0-7.5 3.357-7.5 7.5s3.357 7.5 7.5 7.5h8.266v49.828c0 4.143 3.357 7.5 7.5 7.5s7.5-3.357 7.5-7.5v-49.828h8.394c4.143 0 7.5-3.357 7.5-7.5s-3.359-7.5-7.501-7.5z"/></g><path d="m478.527 118.651c-2.93-2.928-7.678-2.928-10.607 0l-183.258 183.259-85.106-85.107c-2.93-2.928-7.678-2.928-10.607 0l-178.308 178.306c-2.929 2.93-2.929 7.678 0 10.607 1.465 1.464 3.384 2.196 5.304 2.196 1.919 0 3.839-.732 5.304-2.196l173.004-173.004 85.106 85.107c2.93 2.928 7.678 2.928 10.607 0l188.562-188.562c2.928-2.928 2.928-7.676-.001-10.606z" fill="#8d9ca8"/><path d="m478.514 144.155-26.645-26.645c-3.167-3.167-1.207-8.59 3.253-9.001l29.348-2.702c3.292-.303 6.051 2.456 5.748 5.748l-2.702 29.347c-.412 4.46-5.836 6.42-9.002 3.253z" fill="#c1e9af"/><g fill="#8d9ca8"><path d="m392.794 318.73h62.967c4.143 0 7.5-3.357 7.5-7.5s-3.357-7.5-7.5-7.5h-62.967c-4.143 0-7.5 3.357-7.5 7.5s3.357 7.5 7.5 7.5z"/><path d="m455.761 333.529h-98.438c-4.143 0-7.5 3.357-7.5 7.5s3.357 7.5 7.5 7.5h98.438c4.143 0 7.5-3.357 7.5-7.5s-3.358-7.5-7.5-7.5z"/><path d="m455.761 363.329h-98.438c-4.143 0-7.5 3.357-7.5 7.5s3.357 7.5 7.5 7.5h98.438c4.143 0 7.5-3.357 7.5-7.5s-3.358-7.5-7.5-7.5z"/><path d="m455.761 393.128h-98.438c-4.143 0-7.5 3.357-7.5 7.5s3.357 7.5 7.5 7.5h98.438c4.143 0 7.5-3.357 7.5-7.5s-3.358-7.5-7.5-7.5z"/></g><path d="m512 482.125c0 8.819-7.149 15.968-15.968 15.968h-470.277c-14.224 0-25.755-11.531-25.755-25.755v-442.463c0-8.819 7.149-15.968 15.968-15.968 8.819 0 15.968 7.149 15.968 15.968v432.002c0 2.363 1.916 4.279 4.279 4.279h459.817c8.819.001 15.968 7.15 15.968 15.969z" fill="#fe99a0"/><g><path d="m496.032 466.157h-30c8.819 0 15.968 7.149 15.968 15.968 0 8.819-7.149 15.968-15.968 15.968h30c8.819 0 15.968-7.149 15.968-15.968 0-8.819-7.149-15.968-15.968-15.968z" fill="#fd8087"/></g></g></svg>