<svg id="Layer_1" enable-background="new 0 0 512 512" height="512" viewBox="0 0 512 512" width="512" xmlns="http://www.w3.org/2000/svg"><g><path d="m10.033 6h354.833c2.227 0 4.032 1.805 4.032 4.032v492.935c0 2.227-1.805 4.032-4.032 4.032h-354.833c-2.227.001-4.033-1.804-4.033-4.031v-492.936c0-2.227 1.806-4.032 4.033-4.032z" fill="#faf8f9"/><path d="m364.865 6h-30.241c2.227 0 4.032 1.805 4.032 4.032v492.935c0 2.227-1.805 4.032-4.032 4.032h30.241c2.227 0 4.032-1.805 4.032-4.032v-492.935c0-2.227-1.805-4.032-4.032-4.032z" fill="#efedef"/><path d="m10.033 6h354.833c2.227 0 4.032 1.805 4.032 4.032v52.418h-362.898v-52.417c0-2.228 1.806-4.033 4.033-4.033z" fill="#79c9d2"/><path d="m364.865 6h-30.241c2.227 0 4.032 1.805 4.032 4.032v52.418h30.241v-52.417c0-2.228-1.805-4.033-4.032-4.033z" fill="#34b9c5"/><g fill="#8e9da8"><path d="m184.574 126.227h32.486c4.053 0 7.339-3.285 7.339-7.339s-3.286-7.339-7.339-7.339h-32.486c-4.053 0-7.339 3.285-7.339 7.339s3.286 7.339 7.339 7.339z"/><path d="m184.574 162.136h87.241c4.053 0 7.339-3.285 7.339-7.339s-3.286-7.339-7.339-7.339h-87.241c-4.053 0-7.339 3.285-7.339 7.339s3.286 7.339 7.339 7.339z"/><path d="m271.816 182.875h-87.241c-4.053 0-7.339 3.285-7.339 7.339s3.286 7.339 7.339 7.339h87.241c4.053 0 7.339-3.285 7.339-7.339s-3.286-7.339-7.339-7.339z"/><path d="m271.816 218.292h-87.241c-4.053 0-7.339 3.285-7.339 7.339s3.286 7.339 7.339 7.339h87.241c4.053 0 7.339-3.285 7.339-7.339s-3.286-7.339-7.339-7.339z"/><path d="m271.816 279.454h-226.112c-4.053 0-7.339 3.285-7.339 7.339s3.286 7.339 7.339 7.339h226.112c4.053 0 7.339-3.285 7.339-7.339s-3.286-7.339-7.339-7.339z"/><path d="m271.816 310.884h-226.112c-4.053 0-7.339 3.285-7.339 7.339s3.286 7.339 7.339 7.339h226.112c4.053 0 7.339-3.285 7.339-7.339s-3.286-7.339-7.339-7.339z"/><path d="m271.816 342.314h-226.112c-4.053 0-7.339 3.285-7.339 7.339s3.286 7.339 7.339 7.339h226.112c4.053 0 7.339-3.285 7.339-7.339s-3.286-7.339-7.339-7.339z"/><path d="m271.816 373.744h-226.112c-4.053 0-7.339 3.285-7.339 7.339s3.286 7.339 7.339 7.339h226.112c4.053 0 7.339-3.285 7.339-7.339s-3.286-7.339-7.339-7.339z"/><path d="m163.278 405.175h-117.574c-4.053 0-7.339 3.285-7.339 7.339s3.286 7.339 7.339 7.339h117.575c4.053 0 7.339-3.285 7.339-7.339s-3.286-7.339-7.34-7.339z"/></g><g fill="#f297a1"><path d="m111.975 123.862c-3.739-1.568-8.038.191-9.607 3.928l-40.609 96.764c-1.569 3.737.19 8.038 3.927 9.607.928.388 1.89.573 2.837.573 2.868 0 5.591-1.692 6.77-4.501l40.609-96.764c1.569-3.737-.189-8.037-3.927-9.607z"/><path d="m86.035 146.971c0-15.544-11.342-28.19-25.282-28.19s-25.282 12.646-25.282 28.19c0 15.545 11.342 28.191 25.282 28.191s25.282-12.647 25.282-28.191zm-25.283 13.513c-5.848 0-10.604-6.062-10.604-13.513s4.758-13.512 10.604-13.512 10.604 6.061 10.604 13.512-4.756 13.513-10.604 13.513z"/><path d="m115.597 184.94c-13.941 0-25.282 12.646-25.282 28.19 0 15.545 11.342 28.191 25.282 28.191s25.282-12.646 25.282-28.191c.001-15.544-11.341-28.19-25.282-28.19zm0 41.702c-5.848 0-10.604-6.062-10.604-13.513s4.758-13.512 10.604-13.512 10.604 6.061 10.604 13.512-4.756 13.513-10.604 13.513z"/></g><path d="m416.393 362.439v79.251h-110.935v-79.244c0-16.233 5.19-32.042 14.813-45.116l.052-.07c9.623-13.075 14.813-28.883 14.813-45.117v-38.163h51.592v38.169c0 16.23 5.187 32.034 14.805 45.107l.057.076c9.616 13.073 14.803 28.878 14.803 45.107z" fill="#e49180"/><path d="m401.588 317.332-.057-.076c-9.618-13.073-14.805-28.877-14.805-45.107v-38.168h-30.242v38.168c0 16.23 5.187 32.034 14.805 45.107l.057.076c9.618 13.073 14.805 28.878 14.805 45.108v79.251h30.241v-79.251c.001-16.231-5.186-32.035-14.804-45.108z" fill="#de8066"/><circle cx="360.925" cy="203.83" fill="#eaa998" r="50.615"/><path d="m360.925 153.215c-5.267 0-10.346.806-15.121 2.299 20.567 6.43 35.494 25.629 35.494 48.316s-14.926 41.885-35.494 48.315c4.775 1.493 9.854 2.299 15.121 2.299 27.953 0 50.615-22.66 50.615-50.615 0-27.953-22.661-50.614-50.615-50.614z" fill="#e49180"/><path d="m467.686 483.852h-213.522v-44.393c0-6.125 4.965-11.089 11.089-11.089h191.344c6.124 0 11.089 4.964 11.089 11.089z" fill="#eaa998"/><path d="m456.597 428.372h-30.241c6.124 0 11.089 4.964 11.089 11.089v44.393h30.241v-44.394c0-6.124-4.965-11.088-11.089-11.088z" fill="#e49180"/><path d="m500.281 506.999h-278.712c-3.711 0-6.718-3.008-6.718-6.718 0-12.992 10.532-23.522 23.522-23.522h245.103c12.992 0 23.522 10.532 23.522 23.522.002 3.71-3.006 6.718-6.717 6.718z" fill="#e49180"/><path d="m483.477 476.758h-30.241c12.992 0 23.522 10.532 23.522 23.522 0 3.711-3.008 6.718-6.718 6.718h30.241c3.711 0 6.718-3.008 6.718-6.718.001-12.991-10.531-23.522-23.522-23.522z" fill="#de8066"/></g></svg>