<svg id="Layer_1" enable-background="new 0 0 512 512" height="512" viewBox="0 0 512 512" width="512" xmlns="http://www.w3.org/2000/svg"><g><path d="m74.688 0h362.624c2.276 0 4.121 1.845 4.121 4.121v503.759c0 2.276-1.845 4.121-4.121 4.121h-362.624c-2.276 0-4.121-1.845-4.121-4.121v-503.759c0-2.276 1.845-4.121 4.121-4.121z" fill="#f9f7f8"/><path d="m437.312 0h-30.905c2.276 0 4.121 1.845 4.121 4.121v503.759c0 2.276-1.845 4.121-4.121 4.121h30.905c2.276 0 4.121-1.845 4.121-4.121v-503.759c0-2.276-1.845-4.121-4.121-4.121z" fill="#efedef"/><path d="m74.688 0h362.624c2.276 0 4.121 1.845 4.121 4.121v53.569h-370.866v-53.569c0-2.276 1.845-4.121 4.121-4.121z" fill="#75cdd5"/><path d="m437.312 0h-30.905c2.276 0 4.121 1.845 4.121 4.121v53.569h30.905v-53.569c0-2.276-1.845-4.121-4.121-4.121z" fill="#2abcc8"/><g fill="#fe99a0"><path d="m369.409 466.016-23.648 7.247c-2.72.834-5.601-.696-6.435-3.416l-20.816-67.927 33.499-10.266 20.816 67.927c.834 2.721-.695 5.602-3.416 6.435z"/><path d="m247.554 466.016 23.648 7.247c2.72.834 5.601-.696 6.435-3.416l20.816-67.927-33.499-10.266-20.816 67.927c-.834 2.721.696 5.602 3.416 6.435z"/></g><path d="m390.862 350.098c0 7.105-6.877 13.211-8.629 19.764-1.812 6.78 1.037 15.497-2.397 21.434-3.484 6.022-12.491 7.891-17.378 12.778s-6.757 13.894-12.778 17.378c-5.936 3.435-14.653.585-21.433 2.397-6.553 1.751-12.659 8.629-19.764 8.629s-13.211-6.877-19.764-8.629c-6.78-1.812-15.497 1.037-21.434-2.397-6.022-3.484-7.891-12.491-12.778-17.378s-13.894-6.757-17.378-12.778c-3.435-5.936-.585-14.653-2.397-21.433-1.751-6.553-8.629-12.659-8.629-19.764s6.877-13.211 8.629-19.764c1.812-6.78-1.037-15.497 2.397-21.434 3.484-6.022 12.491-7.891 17.378-12.778s6.757-13.894 12.778-17.378c5.936-3.435 14.653-.585 21.433-2.397 6.553-1.751 12.659-8.629 19.764-8.629s13.211 6.877 19.764 8.629c6.78 1.812 15.497-1.037 21.434 2.397 6.022 3.484 7.891 12.491 12.778 17.378s13.894 6.757 17.378 12.778c3.435 5.936.585 14.653 2.397 21.433 1.751 6.552 8.629 12.659 8.629 19.764z" fill="#ffe177"/><path d="m390.862 350.098c0-7.105-6.877-13.211-8.629-19.764-1.812-6.78 1.037-15.497-2.397-21.434-3.484-6.022-12.491-7.891-17.378-12.778s-6.757-13.894-12.778-17.378c-5.936-3.435-14.653-.585-21.434-2.397-6.553-1.752-12.659-8.629-19.764-8.629-5.528 0-10.453 4.157-15.453 6.829 1.426.763 2.857 1.41 4.311 1.799 6.78 1.812 15.497-1.037 21.434 2.397 6.022 3.484 7.891 12.491 12.778 17.378s13.894 6.757 17.378 12.778c3.434 5.937.585 14.653 2.397 21.434 1.751 6.553 8.629 12.659 8.629 19.764s-6.877 13.211-8.629 19.764c-1.812 6.78 1.037 15.497-2.397 21.434-3.484 6.022-12.491 7.892-17.378 12.779s-6.757 13.894-12.778 17.378c-5.936 3.435-14.653.585-21.433 2.397-1.454.389-2.886 1.037-4.311 1.799 5 2.673 9.924 6.829 15.453 6.829 7.105 0 13.211-6.877 19.764-8.629 6.78-1.812 15.497 1.038 21.433-2.397 6.022-3.484 7.891-12.491 12.778-17.378s13.894-6.757 17.378-12.779c3.435-5.936.585-14.653 2.397-21.434 1.751-6.551 8.629-12.657 8.629-19.762z" fill="#ffd15b"/><path d="m347.467 327.438c-2.824-3.03-7.57-3.198-10.6-.374l-36.516 34.027-15.5-13.862c-3.088-2.761-7.829-2.496-10.59.591-2.761 3.088-2.497 7.829.591 10.591l20.604 18.426c1.425 1.274 3.212 1.909 4.999 1.909 1.838 0 3.675-.673 5.113-2.013l41.524-38.694c3.032-2.825 3.2-7.571.375-10.601z" fill="#8d9ca8"/><g fill="#8d9ca8"><path d="m123.326 340.051h66.229c4.142 0 7.5-3.357 7.5-7.5s-3.358-7.5-7.5-7.5h-66.229c-4.142 0-7.5 3.357-7.5 7.5s3.358 7.5 7.5 7.5z"/><path d="m189.556 356.377h-66.229c-4.142 0-7.5 3.357-7.5 7.5s3.358 7.5 7.5 7.5h66.229c4.142 0 7.5-3.357 7.5-7.5s-3.358-7.5-7.5-7.5z"/><path d="m159.971 387.703h-36.645c-4.142 0-7.5 3.357-7.5 7.5s3.358 7.5 7.5 7.5h36.645c4.142 0 7.5-3.357 7.5-7.5s-3.358-7.5-7.5-7.5z"/></g><path d="m364.963 116.021h-217.926c-6.958 0-12.598-5.64-12.598-12.598v-51.038c0-6.958 5.64-12.598 12.598-12.598h217.927c6.958 0 12.598 5.64 12.598 12.598v51.037c-.001 6.958-5.641 12.599-12.599 12.599z" fill="#fe99a0"/><path d="m364.963 39.787h-30.905c6.958 0 12.598 5.64 12.598 12.598v51.037c0 6.958-5.64 12.598-12.598 12.598h30.905c6.958 0 12.598-5.64 12.598-12.598v-51.037c0-6.957-5.64-12.598-12.598-12.598z" fill="#fd8087"/><g fill="#8d9ca8"><path d="m254.896 156.271c-.026-.069-.054-.139-.082-.208-1.424-3.457-4.758-5.689-8.496-5.689h-.011c-3.743.005-7.077 2.246-8.494 5.71-.023.057-.046.113-.067.171l-27.972 73.444c-1.474 3.87.468 8.203 4.339 9.678.879.335 1.781.493 2.668.493 3.022 0 5.871-1.84 7.01-4.833l5.127-13.461h34.59l5.072 13.44c1.462 3.874 5.789 5.831 9.665 4.368 3.875-1.462 5.832-5.789 4.369-9.665zm-20.265 50.304 11.662-30.618 11.554 30.618z"/><path d="m361.873 228.052-25.026-35.575 21.335-30.285c2.386-3.387 1.574-8.065-1.812-10.45-3.387-2.388-8.065-1.575-10.451 1.812l-18.24 25.892-18.211-25.888c-2.384-3.387-7.062-4.203-10.45-1.818-3.388 2.383-4.202 7.062-1.819 10.449l21.303 30.283-25.062 35.577c-2.386 3.387-1.574 8.065 1.812 10.45 1.313.926 2.82 1.37 4.313 1.37 2.357 0 4.677-1.108 6.138-3.182l21.967-31.183 21.934 31.179c1.46 2.075 3.782 3.186 6.141 3.186 1.491 0 2.997-.443 4.309-1.367 3.388-2.384 4.202-7.063 1.819-10.45z"/><path d="m197.401 150.373h-41.14c-4.142 0-7.5 3.357-7.5 7.5s3.358 7.5 7.5 7.5h12.987v66.994c0 4.143 3.358 7.5 7.5 7.5s7.5-3.357 7.5-7.5v-66.994h13.153c4.142 0 7.5-3.357 7.5-7.5s-3.358-7.5-7.5-7.5z"/></g></g></svg>