<svg id="Capa_1" enable-background="new 0 0 512.001 512.001" height="512" viewBox="0 0 512.001 512.001" width="512" xmlns="http://www.w3.org/2000/svg"><g><path d="m376.279 417.038-51.116-22.718-6.043-9.065c-3.697-5.546-9.403-9.013-15.539-10.088v-31.217c15.448-11.503 26.623-28.517 30.526-48.386h2.054c6.914 0 13.449-3.022 17.931-8.292 4.48-5.267 6.406-12.242 5.285-19.137-1.376-8.453-7.617-15.331-15.716-18.194v-17.989c0-43.917-35.729-79.645-79.645-79.645h-16.032c-40.666 0-74.697 30.439-79.159 70.804-.455 4.117 2.514 7.824 6.63 8.279 4.117.449 7.823-2.514 8.279-6.63 3.621-32.753 31.242-57.453 64.25-57.453h16.032c35.646 0 64.645 29 64.645 64.645v16.548h-56.629c-4.142 0-7.5 3.358-7.5 7.5v1.456c-2.611-.61-5.477-.94-8.532-.94s-5.921.33-8.532.94v-1.456c0-4.142-3.358-7.5-7.5-7.5h-63.271c-11.903 0-22.253 8.441-24.074 19.636-1.121 6.894.805 13.869 5.285 19.136 4.482 5.27 11.018 8.292 17.931 8.292h2.054c3.903 19.868 15.079 36.882 30.526 48.386v31.217c-6.136 1.075-11.842 4.542-15.539 10.088l-6.043 9.065-51.116 22.718c-14.273 6.344-23.496 20.536-23.496 36.155v51.307c0 4.142 3.358 7.5 7.5 7.5s7.5-3.358 7.5-7.5v-51.307c0-9.698 5.726-18.509 14.588-22.448l44.137-19.616 14.54 94.512c.57 3.708 3.765 6.36 7.403 6.36.379 0 .763-.029 1.15-.088 4.094-.63 6.902-4.459 6.272-8.553l-10.685-69.449c3.213 2.806 7.162 4.718 11.461 5.462 1.338.231 2.682.345 4.019.345 5.406 0 10.688-1.864 14.931-5.351l13.459-11.057v81.19c0 4.142 3.358 7.5 7.5 7.5s7.5-3.358 7.5-7.5v-81.19l13.458 11.056c4.244 3.487 9.525 5.351 14.931 5.351 1.336 0 2.681-.114 4.019-.345 4.299-.744 8.248-2.656 11.461-5.462l-10.685 69.449c-.63 4.094 2.178 7.923 6.272 8.553.387.06.771.088 1.15.088 3.639 0 6.833-2.653 7.403-6.36l14.54-94.512 44.137 19.616c8.862 3.939 14.588 12.75 14.588 22.448v51.308c0 4.142 3.358 7.5 7.5 7.5s7.5-3.358 7.5-7.5v-51.307c.001-15.619-9.222-29.811-23.495-36.155zm-96.746-153.538h25.081v4.524c0 6.915-5.625 12.54-12.54 12.54s-12.541-5.625-12.541-12.54zm-47.065 4.524c0 6.915-5.625 12.54-12.541 12.54-6.915 0-12.54-5.625-12.54-12.54v-4.524h25.081zm-40.688 19.216c-.42-3.8-3.632-6.675-7.455-6.675h-8.486c-2.507 0-4.878-1.097-6.505-3.01-1.649-1.938-2.325-4.428-1.905-7.01.642-3.95 4.713-7.044 9.268-7.044h15.69v4.524c0 15.186 12.354 27.54 27.54 27.54 12.372 0 22.863-8.201 26.327-19.452.517-.795.893-1.691 1.079-2.656 1.099-.723 4.085-1.94 8.667-1.94s7.568 1.217 8.667 1.94c.186.965.562 1.861 1.079 2.656 3.464 11.251 13.955 19.452 26.327 19.452 15.186 0 27.54-12.354 27.54-27.54v-4.525h15.69c4.554 0 8.625 3.094 9.268 7.044.42 2.582-.256 5.072-1.905 7.01-1.627 1.913-3.998 3.01-6.505 3.01h-8.486c-3.823 0-7.034 2.875-7.455 6.675-3.625 32.754-31.233 57.454-64.22 57.454s-60.595-24.699-64.22-57.453zm64.22 72.453c11.577 0 22.609-2.484 32.581-6.949v24.745c-.626.329-1.244.685-1.848 1.077l-30.733 19.937-30.732-19.936c-.604-.392-1.222-.748-1.848-1.077v-24.745c9.972 4.464 21.004 6.948 32.58 6.948zm-30.479 63.084c-1.947 1.6-4.387 2.245-6.871 1.814-2.483-.43-4.565-1.856-5.862-4.018l-12.043-20.072 4.618-6.926c2.576-3.866 7.843-4.954 11.742-2.425l26.213 17.005zm67.83 1.814c-2.486.43-4.924-.215-6.871-1.814l-17.797-14.622 26.214-17.005c3.898-2.528 9.165-1.44 11.742 2.425l4.617 6.926-12.043 20.072c-1.297 2.162-3.379 3.589-5.862 4.018z"/><path d="m235.491 312.979c6.482 3.536 13.383 5.328 20.51 5.328s14.027-1.792 20.51-5.328c3.636-1.983 4.977-6.539 2.993-10.176-1.983-3.636-6.539-4.976-10.176-2.993-4.254 2.32-8.738 3.497-13.327 3.497s-9.073-1.177-13.327-3.497c-3.638-1.982-8.192-.644-10.176 2.993s-.644 8.193 2.993 10.176z"/><path d="m91.417 263.896 22.462-21.896c2.044-1.993 2.78-4.973 1.898-7.688s-3.229-4.694-6.054-5.104l-31.042-4.511-13.883-28.129c-1.264-2.56-3.871-4.181-6.726-4.181s-5.462 1.621-6.726 4.181l-13.882 28.129-31.042 4.511c-2.825.41-5.172 2.389-6.054 5.104-.882 2.715-.146 5.695 1.898 7.688l22.462 21.896-5.303 30.917c-.482 2.814.674 5.658 2.984 7.336 2.309 1.678 5.371 1.899 7.898.571l27.765-14.597 27.765 14.597c1.098.577 2.296.861 3.489.861 1.555 0 3.103-.483 4.409-1.433 2.31-1.678 3.466-4.521 2.984-7.335zm-13.293-7.989c-1.768 1.723-2.575 4.206-2.157 6.639l3.4 19.825-17.804-9.36c-1.093-.574-2.292-.861-3.49-.861s-2.397.287-3.49.861l-17.804 9.36 3.4-19.825c.417-2.433-.389-4.916-2.157-6.639l-14.404-14.04 19.906-2.893c2.443-.355 4.555-1.889 5.647-4.103l8.902-18.038 8.902 18.038c1.093 2.213 3.204 3.748 5.647 4.103l19.906 2.893z"/><path d="m83.2 126.688-5.303 30.917c-.482 2.814.674 5.658 2.984 7.336 2.309 1.677 5.371 1.899 7.898.571l27.765-14.597 27.765 14.597c1.098.577 2.296.861 3.489.861 1.555 0 3.103-.483 4.409-1.433 2.31-1.678 3.466-4.521 2.984-7.335l-5.303-30.917 22.462-21.896c2.044-1.993 2.78-4.973 1.898-7.688s-3.229-4.694-6.054-5.104l-31.042-4.511-13.882-28.129c-1.264-2.56-3.871-4.181-6.726-4.181s-5.462 1.621-6.726 4.181l-13.881 28.129-31.043 4.511c-2.825.41-5.172 2.389-6.054 5.104s-.146 5.695 1.898 7.688zm18.796-24.922c2.443-.355 4.555-1.889 5.647-4.103l8.902-18.038 8.902 18.038c1.093 2.213 3.204 3.748 5.647 4.103l19.906 2.893-14.404 14.04c-1.768 1.723-2.575 4.206-2.157 6.639l3.4 19.825-17.804-9.36c-1.093-.574-2.292-.861-3.49-.861s-2.397.287-3.49.861l-17.804 9.36 3.4-19.825c.417-2.433-.389-4.916-2.157-6.639l-14.404-14.04z"/><path d="m222.656 71.509-5.303 30.917c-.482 2.814.674 5.658 2.984 7.335 2.309 1.678 5.371 1.9 7.898.571l27.765-14.597 27.765 14.597c1.098.577 2.296.861 3.489.861 1.555 0 3.103-.483 4.409-1.433 2.31-1.678 3.466-4.521 2.984-7.335l-5.303-30.917 22.462-21.896c2.044-1.993 2.78-4.973 1.897-7.688-.882-2.715-3.229-4.694-6.054-5.104l-31.042-4.511-13.881-28.128c-1.264-2.56-3.871-4.181-6.726-4.181s-5.462 1.621-6.726 4.181l-13.881 28.129-31.042 4.511c-2.825.41-5.172 2.389-6.054 5.104s-.146 5.696 1.897 7.688zm18.796-24.922c2.443-.355 4.555-1.889 5.647-4.103l8.901-18.037 8.902 18.038c1.092 2.213 3.204 3.748 5.647 4.103l19.906 2.893-14.404 14.039c-1.768 1.723-2.574 4.206-2.157 6.639l3.4 19.825-17.804-9.36c-1.093-.574-2.292-.861-3.49-.861s-2.397.287-3.49.861l-17.804 9.36 3.4-19.825c.417-2.433-.389-4.916-2.157-6.639l-14.404-14.041z"/><path d="m511.633 234.312c-.882-2.715-3.229-4.694-6.054-5.104l-31.042-4.511-13.882-28.129c-1.264-2.56-3.871-4.181-6.726-4.181s-5.462 1.621-6.726 4.181l-13.883 28.129-31.042 4.511c-2.825.41-5.172 2.389-6.054 5.104s-.146 5.695 1.898 7.688l22.462 21.896-5.303 30.917c-.482 2.814.674 5.658 2.984 7.335 1.307.95 2.854 1.433 4.409 1.433 1.193 0 2.392-.285 3.489-.861l27.765-14.597 27.765 14.597c2.529 1.329 5.589 1.107 7.898-.571 2.31-1.678 3.466-4.522 2.984-7.336l-5.303-30.917 22.463-21.896c2.045-1.992 2.781-4.973 1.898-7.688zm-37.654 21.595c-1.768 1.723-2.575 4.206-2.157 6.639l3.4 19.825-17.804-9.36c-2.186-1.148-4.795-1.148-6.98 0l-17.804 9.36 3.4-19.825c.417-2.433-.389-4.916-2.157-6.639l-14.404-14.04 19.906-2.893c2.443-.355 4.554-1.889 5.647-4.103l8.902-18.038 8.902 18.038c1.092 2.213 3.204 3.748 5.647 4.103l19.906 2.893z"/><path d="m362.112 126.688-5.303 30.917c-.482 2.814.674 5.658 2.984 7.335 1.307.95 2.854 1.433 4.409 1.433 1.193 0 2.392-.285 3.489-.861l27.765-14.597 27.765 14.597c2.529 1.329 5.589 1.107 7.898-.571 2.31-1.678 3.466-4.522 2.984-7.336l-5.303-30.917 22.462-21.896c2.044-1.993 2.78-4.973 1.898-7.688s-3.229-4.694-6.054-5.104l-31.042-4.511-13.882-28.129c-1.264-2.56-3.871-4.181-6.726-4.181s-5.462 1.621-6.726 4.181l-13.283 26.914c-1.833 3.714-.308 8.211 3.406 10.045s8.211.307 10.045-3.406l6.557-13.286 8.902 18.037c1.092 2.213 3.204 3.748 5.647 4.103l19.906 2.893-14.404 14.04c-1.768 1.723-2.575 4.206-2.157 6.639l3.4 19.825-17.804-9.36c-2.186-1.148-4.795-1.148-6.98 0l-17.804 9.36 3.4-19.825c.417-2.433-.389-4.916-2.157-6.639l-25.286-24.647c-2.965-2.891-7.714-2.831-10.605.136-2.891 2.966-2.831 7.714.136 10.605z"/></g></svg>